<svg xmlns="http://www.w3.org/2000/svg" height="40" viewBox="0 96 960 960" width="40"><path d="m616.008 774.775 62.579-62.101-153.123-154.979V366.181h-86.072v227.206l176.616 181.388ZM480.206 999.246q-86.911 0-164.542-33.378-77.63-33.379-134.888-90.631-57.258-57.252-90.64-134.874-33.382-77.623-33.382-164.529 0-87.163 33.472-164.4 33.472-77.237 90.821-134.606 57.348-57.369 134.841-90.801 77.493-33.432 164.296-33.432 87.165 0 164.39 33.428 77.224 33.428 134.6 90.803 57.375 57.376 90.803 134.627T903.405 575.9q0 87.195-33.432 164.45t-90.801 134.603q-57.369 57.349-134.584 90.821t-164.382 33.472ZM480 576Zm-.139 333.986q137.958 0 236.041-97.576 98.084-97.576 98.084-236.273 0-138.195-98.005-236.159-98.004-97.964-236.255-97.964-138.371 0-236.041 97.887-97.671 97.888-97.671 236.375 0 138.608 97.694 236.159 97.693 97.551 236.153 97.551Z"/></svg>