<svg xmlns="http://www.w3.org/2000/svg" height="40" viewBox="0 -960 960 960" width="40"><path d="m141-148-24-24h724l-24 24H141Zm23.333-108q5-9 12.667-19.333 7.667-10.334 18-21.334v-326h-40v-26h40v-40.666h-40v-26h40V-756h-40v-26h244q17.333 0 34.667 13.833Q451-754.333 451-722v6.667h392v26H451v6.666q0 32.334-17.333 46.167-17.334 13.833-34.667 13.833h-76.667v279.334q27.667 2 54.167 13T422.333-300q4-54.667 53.5-98.333Q525.333-442 601.667-442q76.333 0 128.5 45 52.166 45 54.166 110.333V-256h-620Zm280-24H761q2-56-45.167-97-47.166-41-114.166-41-66.334 0-112.5 41-46.167 41-44.834 97Zm-122-435.333H429V-724q0-12-10-22t-22-10h-74.667v40.667Zm0 66.666H397q12 0 22-10t10-22v-8.666H322.333v40.666ZM221-715.333h75.333V-756H221v40.667Zm0 66.666h75.333v-40.666H221v40.666Zm0 331.334q16.333-11 34.667-17.5 18.333-6.5 40.666-7.834v-280H221v305.334ZM444.333-280H761 444.333Z"/></svg>