<svg xmlns="http://www.w3.org/2000/svg" height="40" viewBox="0 -960 960 960" width="40"><path d="M366.333-156h169.334v-48.667L547-207.333Q628.333-231 685-286.667 741.667-342.333 761-400H142.333q20 57.667 75.667 113.333Q273.667-231 355-207.333l11.333 2.666V-156Zm-24 24v-55.333q-92-36-153.5-98.334Q127.333-348 109-424v-2l52.667 2v-324L845-822v26l-481.333 52v90H851v26H363.667v204H795q-16.333 76-80.167 138.333Q651-223.333 559.667-187.333V-132H342.333Zm-66.666-522h62v-86l-62 6.731V-654Zm-88 0h62v-78l-62 5.707V-654Zm88 230h62v-204h-62v204Zm-88 0h62v-204h-62v204ZM452-156Z"/></svg>