<svg xmlns="http://www.w3.org/2000/svg" height="40" viewBox="0 -960 960 960" width="40"><path d="m248.372-351.705-32.911-32.064q54.859-55.372 121.084-84.751Q402.769-497.898 480-497.898q77.231 0 143.455 29.334 66.225 29.333 121.084 84.154l-32.193 32.705q-49.397-48.68-108.5-74.058Q544.744-451.141 480-451.141t-123.846 25.378q-59.103 25.378-107.782 74.058ZM82.141-518.449l-33.424-32.705q83.244-83.923 193.289-133.218Q352.051-733.667 480-733.667t237.994 49.295q110.045 49.295 193.288 133.218l-32.705 32.705q-80.218-78.038-181.455-123.25Q595.885-686.911 480-686.911q-115.885 0-217.122 45.212-101.237 45.212-180.737 123.25ZM480-120.09l100.808-100.32q-19.731-19.616-45.398-30.667-25.666-11.051-55.41-11.051-29.744 0-55.41 11.051-25.667 11.051-44.68 30.667L480-120.09Z"/></svg>