<svg xmlns="http://www.w3.org/2000/svg" height="40" viewBox="0 -960 960 960" width="40"><path d="M792-254q40 21.333 65.333-10.167 25.334-31.5 6-68.5l-84.666-158.666-76 189.333L792-254Zm-218-36.667h98l98.667-242.666q11-28.334 5.166-46.5Q770-598 748.667-606.667L668-639.333q-22.333-9.667-43.167-3.334-20.833 6.334-22.166 30l-28.667 322Zm-286 0h98l-28.667-326Q356-634.333 336.167-642q-19.834-7.667-44.167 2.667l-79.333 32q-22.334 9.666-25 31.5-2.667 21.833 7 47.166l93.333 238ZM168-254l89.333-48-74-189.333-86.666 164Q76-288.667 103.833-262q27.834 26.667 64.167 8Zm242-36.667h140L582.667-658q1.333-21.667-11.834-36.833Q557.667-710 534-710H426q-18.333 0-34.167 13.667Q376-682.667 377.333-662L410-290.667ZM141.458-224q-31.958 0-53.708-20.833Q66-265.667 66-296q0-10.971 2.5-21.486Q71-328 76.667-338l94.666-182q-13-33-5.166-65.167 7.833-32.166 37.166-44.166L284-662q18.667-8 38-7.5t33.333 14.833q-1.333-32 19.667-55.666Q396-734 427.543-734H534q31 0 52.5 21.5t22.167 53.167Q619.667-674 639-671.5t37 9.5l80.667 32.667Q786-618 795.333-586q9.334 32-4.666 63.333l94.666 183.334q3.334 7.333 7 14.784 3.667 7.45 3.667 15.882 0 35-24.167 59.834Q847.667-224 813.113-224q-8.446 0-15.446-2.667-7-2.666-14.334-6l-65.333-34H242.667l-62.667 32q-9 4.334-18.667 7.5Q151.667-224 141.458-224ZM481-479Z"/></svg>