<?xml version="1.0" encoding="UTF-8" standalone="no"?>
<!-- Uploaded to: SVG Repo, www.svgrepo.com, Generator: SVG Repo Mixer Tools -->

<svg
   fill="#000000"
   height="800px"
   width="800px"
   version="1.1"
   id="Layer_1"
   viewBox="0 0 310 310"
   xml:space="preserve"
   sodipodi:docname="facebook.svg"
   inkscape:version="1.2.2 (732a01da63, 2022-12-09)"
   xmlns:inkscape="http://www.inkscape.org/namespaces/inkscape"
   xmlns:sodipodi="http://sodipodi.sourceforge.net/DTD/sodipodi-0.dtd"
   xmlns="http://www.w3.org/2000/svg"
   xmlns:svg="http://www.w3.org/2000/svg"><defs
   id="defs7" /><sodipodi:namedview
   id="namedview5"
   pagecolor="#ffffff"
   bordercolor="#000000"
   borderopacity="0.25"
   inkscape:showpageshadow="2"
   inkscape:pageopacity="0.0"
   inkscape:pagecheckerboard="0"
   inkscape:deskcolor="#d1d1d1"
   showgrid="false"
   inkscape:zoom="1.03625"
   inkscape:cx="282.26779"
   inkscape:cy="466.10374"
   inkscape:window-width="1920"
   inkscape:window-height="1009"
   inkscape:window-x="-8"
   inkscape:window-y="-8"
   inkscape:window-maximized="1"
   inkscape:current-layer="XMLID_834_" />
<g
   id="XMLID_834_">
	<path
   id="path293"
   d="m 110.75787,161.09993 h 20.51082 v 84.43955 c 0,1.66713 1.35085,3.01798 3.01798,3.01798 h 34.77682 c 1.66714,0 3.01799,-1.35085 3.01799,-3.01798 V 161.4977 h 23.5789 c 1.53313,0 2.82302,-1.15045 2.99806,-2.67333 l 3.58114,-31.08643 c 0.0984,-0.8553 -0.17263,-1.7118 -0.74484,-2.35342 -0.57281,-0.64223 -1.3925,-1.00982 -2.25262,-1.00982 h -27.15943 v -19.48651 c 0,-5.8742 3.16284,-8.85295 9.40162,-8.85295 h 17.75781 c 1.66713,0 3.01798,-1.35146 3.01798,-3.01799 V 64.48283 c 0,-1.66714 -1.35085,-3.01799 -3.01798,-3.01799 h -24.47283 c -0.17263,-0.008 -0.55591,-0.0223 -1.12088,-0.0223 -4.2463,0 -19.00605,0.83357 -30.66512,11.55948 -9.08107,10.19319 -11.12247,26.11762 -10.69332,28.58513 v 22.78698 h -21.5321 c -1.66713,0 -3.01798,1.35085 -3.01798,3.01798 v 30.68927 c 0,1.66713 1.35085,3.01858 3.01798,3.01858 z"
   sodipodi:nodetypes="scsssscscccscsssssscscccssss"
   style="stroke-width:13.175;image-rendering:auto;stroke:#ffffff;stroke-opacity:1;stroke-dasharray:none;fill:none" />
</g>
</svg>
