<svg xmlns="http://www.w3.org/2000/svg" height="40" viewBox="0 96 960 960" width="40"><path d="M184.514 951.942q-31.059 0-53.486-22.427-22.427-22.426-22.427-53.486h75.913v75.913Zm-75.913-158.579v-82.667h75.913v82.667h-75.913Zm0-165.334v-82.666h75.913v82.666h-75.913Zm0-164.667v-82.666h75.913v82.666h-75.913Zm158.58 488.58v-75.913h82.667v75.913h-82.667Zm75.753-158.579q-30.993 0-53.373-22.38t-22.38-53.374V285.058q0-31.06 22.38-53.486 22.38-22.427 53.373-22.427h432.552q31.059 0 53.486 22.427 22.427 22.426 22.427 53.486v432.551q0 30.994-22.427 53.374-22.427 22.38-53.486 22.38H342.934Zm0-75.754h432.552V285.058H342.934v432.551Zm89.58 234.333v-75.913h82.667v75.913h-82.667Zm165.334 0v-75.913h82.667v75.913h-82.667Z"/></svg>