<svg xmlns="http://www.w3.org/2000/svg" height="40" viewBox="0 96 960 960" width="40"><path d="M184.514 951.942q-31.059 0-53.486-22.427-22.427-22.426-22.427-53.486V368h75.913v508.029h508.03v75.913h-508.03Zm156.029-158.579q-29.762 0-51.562-21.8-21.8-21.8-21.8-51.562h73.362v73.362Zm-73.362-158.696V544h73.362v90.667h-73.362Zm0-176V368h73.362v90.667h-73.362Zm0-176.001q0-29.716 21.8-51.618 21.8-21.903 51.562-21.903v73.521h-73.362Zm158.695 510.697v-73.362h90.667v73.362h-90.667Zm0-510.697v-73.521h90.667v73.521h-90.667Zm176.001 510.697v-73.362h90.667v73.362h-90.667Zm0-510.697v-73.521h90.667v73.521h-90.667Zm176 510.697v-73.362h73.522q0 29.71-21.847 51.536t-51.675 21.826Zm0-158.696V544h73.522v90.667h-73.522Zm0-176V368h73.522v90.667h-73.522Zm0-176.001v-73.521q29.876 0 51.699 21.903 21.823 21.902 21.823 51.618h-73.522Z"/></svg>