<?xml version="1.0" standalone="no"?>
<!DOCTYPE svg PUBLIC "-//W3C//DTD SVG 20010904//EN"
 "http://www.w3.org/TR/2001/REC-SVG-20010904/DTD/svg10.dtd">
<svg version="1.0" xmlns="http://www.w3.org/2000/svg"
 width="1280.000000pt" height="1249.000000pt" viewBox="0 0 1280.000000 1249.000000"
 preserveAspectRatio="xMidYMid meet">
<g transform="translate(0.000000,1249.000000) scale(0.100000,-0.100000)"
fill="#000000" stroke="none">
<path d="M6182 12468 c-8 -8 -12 -49 -12 -118 0 -116 -21 -195 -89 -345 -18
-38 -41 -93 -52 -122 -11 -28 -27 -54 -36 -58 -10 -3 -247 -10 -528 -15 -584
-10 -873 -19 -930 -29 -31 -5 -41 -11 -43 -29 -3 -18 1 -22 22 -22 85 0 115
-55 116 -210 0 -224 -94 -591 -220 -855 -28 -61 -60 -132 -70 -160 -10 -27
-36 -81 -58 -120 -30 -51 -38 -71 -27 -73 18 -4 137 48 210 92 33 20 78 42
100 48 22 6 63 21 90 33 126 57 329 136 396 154 138 38 397 91 443 91 39 0 46
-3 46 -20 0 -39 -135 -345 -162 -368 -9 -7 -121 -17 -304 -26 -159 -9 -318
-18 -354 -21 -257 -22 -564 -34 -576 -24 -11 9 -14 67 -15 288 0 152 -4 368
-8 481 -6 176 -10 210 -26 238 -11 17 -23 32 -27 32 -4 0 -9 -109 -10 -242 -3
-239 -3 -243 -25 -253 -12 -5 -46 -53 -79 -110 -70 -123 -241 -411 -264 -445
-318 -471 -681 -1025 -880 -1342 -123 -197 -113 -266 -109 751 3 687 1 873 -8
882 -24 24 -34 -6 -40 -115 -6 -99 -8 -111 -35 -144 -41 -53 -126 -187 -265
-417 -146 -243 -309 -499 -485 -765 -73 -110 -159 -239 -191 -287 -32 -49 -83
-124 -113 -168 -30 -44 -89 -134 -131 -200 -95 -153 -170 -264 -227 -341 -25
-33 -81 -121 -125 -195 -84 -143 -187 -289 -203 -289 -5 0 -6 -18 -3 -45 6
-37 3 -52 -18 -87 -34 -58 -150 -138 -200 -138 -75 0 -56 -36 34 -63 30 -9 66
-28 79 -42 l23 -24 -16 -98 c-9 -54 -26 -244 -37 -423 -20 -315 -41 -585 -61
-780 -5 -52 -12 -367 -15 -700 -5 -506 -4 -639 10 -815 20 -261 34 -571 42
-960 3 -165 10 -324 15 -354 10 -63 1 -81 -41 -81 -15 0 -34 -7 -41 -16 -20
-25 9 -40 92 -48 39 -4 88 -14 110 -21 72 -26 760 -159 984 -191 55 -8 170
-30 255 -48 85 -19 187 -39 225 -45 97 -15 176 -37 193 -55 18 -17 38 -170 28
-210 -10 -42 0 -44 -486 99 -207 61 -225 63 -365 47 -49 -6 -219 -11 -376 -11
-226 -1 -289 -4 -298 -14 -11 -14 -9 -21 30 -160 12 -44 12 -51 -5 -80 -10
-18 -24 -52 -32 -77 -24 -84 -62 -165 -82 -175 -12 -5 -23 -17 -25 -27 -7 -27
3 -97 21 -151 11 -32 13 -50 6 -57 -11 -11 -788 4 -864 16 -23 4 -40 2 -44 -5
-5 -7 10 -11 46 -11 29 0 130 -4 223 -10 94 -5 279 -14 412 -20 163 -6 254
-14 275 -23 18 -8 65 -41 105 -73 39 -32 116 -87 171 -122 122 -78 197 -142
222 -192 17 -33 25 -38 60 -42 29 -3 40 0 40 11 0 16 16 15 240 -23 211 -36
210 -36 210 -52 0 -8 -5 -14 -12 -14 -31 0 8 -11 101 -30 126 -25 127 -25 134
0 4 14 14 20 35 20 22 0 31 6 36 23 6 21 7 21 20 5 16 -22 34 -23 57 -2 9 8
57 21 107 29 49 7 145 25 213 41 l123 27 91 -31 c49 -17 128 -38 173 -47 46
-9 109 -25 139 -36 70 -24 107 -24 208 0 44 10 105 22 135 25 30 4 123 18 205
31 211 34 373 55 420 55 22 0 69 -10 105 -22 56 -18 89 -21 240 -22 l175 -1
163 -54 c96 -32 161 -58 159 -65 -8 -23 -127 -18 -213 8 -96 30 -94 30 -94 12
0 -25 28 -37 122 -53 104 -17 199 -13 267 11 25 9 76 16 120 16 42 0 157 7
255 16 134 11 191 13 228 5 144 -31 473 14 739 101 l96 31 79 -33 c159 -66
383 -116 824 -186 258 -40 781 -65 1079 -51 262 12 241 2 241 114 0 127 48
421 73 451 8 11 26 12 73 7 58 -6 64 -5 78 17 8 13 18 44 21 70 8 55 20 67 97
98 l57 23 73 -18 c50 -12 126 -19 245 -23 130 -3 175 -8 184 -18 17 -21 31
-17 27 9 -3 22 -5 22 -208 28 -201 6 -260 16 -260 41 0 7 14 31 30 52 42 56
47 93 19 171 l-23 65 27 28 c29 30 33 57 17 111 -8 28 -6 38 7 53 21 24 30 23
98 -8 84 -39 110 -30 237 83 37 32 57 43 82 43 42 0 158 24 457 94 130 31 248
56 262 56 29 0 46 -35 73 -155 8 -38 29 -110 45 -159 33 -102 36 -128 13 -151
-13 -13 -29 -15 -78 -11 -180 17 -1052 86 -1088 86 -16 0 -28 -4 -28 -9 0 -15
37 -20 445 -51 703 -54 742 -58 775 -75 44 -23 64 -12 106 58 21 34 90 139
154 232 64 94 213 312 330 485 117 173 284 419 370 545 296 435 455 670 591
876 75 114 147 214 160 223 13 9 36 16 51 16 22 0 27 5 30 28 2 22 20 38 90
85 71 47 98 60 150 68 56 9 67 14 100 52 20 23 34 45 31 50 -3 4 -23 5 -46 2
-23 -4 -54 -2 -68 3 -20 8 -30 7 -42 -5 -15 -15 -19 -14 -54 9 -81 53 -200
155 -518 443 -181 165 -420 380 -530 479 -110 100 -265 242 -345 316 -144 135
-468 430 -671 611 -58 52 -397 357 -754 679 -357 322 -738 665 -847 764 -109
98 -198 183 -198 188 0 5 10 18 23 28 31 26 14 38 -60 43 l-62 5 -149 135
c-166 152 -203 190 -220 233 -35 89 -116 494 -148 739 -16 129 -31 575 -20
619 3 14 11 26 16 26 5 0 78 -82 162 -182 134 -161 311 -370 888 -1043 80 -93
165 -195 190 -225 24 -30 121 -142 215 -249 188 -215 344 -397 570 -666 221
-264 686 -806 779 -910 45 -49 118 -133 161 -185 44 -52 159 -187 255 -300 97
-113 284 -333 415 -490 132 -157 312 -368 400 -469 88 -101 209 -241 268 -310
132 -153 135 -156 143 -148 3 3 -21 37 -54 74 -33 37 -121 140 -197 228 -398
463 -583 682 -778 915 -67 80 -443 521 -837 980 -393 459 -771 902 -839 984
-68 81 -148 174 -176 205 -29 31 -92 104 -141 162 -97 115 -246 290 -774 908
-190 222 -416 488 -502 590 l-158 186 0 50 c0 70 19 176 35 201 11 17 28 23
77 28 70 8 94 18 84 35 -4 6 -39 11 -85 11 -47 0 -83 5 -93 13 -20 15 -134
260 -182 390 -86 231 -139 513 -138 729 0 81 5 155 10 165 7 11 31 21 64 28
45 8 54 14 56 34 l4 24 -249 -6 c-502 -14 -990 -20 -1015 -14 -18 5 -81 71
-196 204 -214 250 -217 255 -226 337 -10 95 -18 110 -44 84z m238 -422 c96
-110 140 -167 138 -181 -4 -24 -54 -33 -194 -34 -71 -1 -94 2 -104 14 -14 16
-28 329 -17 359 4 9 13 13 22 10 8 -4 78 -79 155 -168z m-236 -48 c-2 -84 -4
-156 -4 -159 0 -4 -20 -10 -45 -13 -45 -7 -85 5 -85 26 0 14 79 235 97 271 7
15 19 27 27 27 10 0 12 -31 10 -152z m1076 -216 c14 1 131 2 260 2 l235 1 -5
-60 c-12 -147 3 -588 23 -685 9 -41 19 -107 23 -146 3 -41 18 -102 34 -140 30
-76 29 -94 -5 -94 -51 0 -80 42 -133 192 -60 168 -69 213 -79 390 -6 115 -8
127 -16 88 -11 -58 0 -257 19 -340 8 -36 26 -104 40 -152 32 -103 28 -123 -18
-113 -50 11 -64 29 -91 118 -50 160 -65 242 -73 382 -6 116 -9 134 -17 105
-10 -37 -2 -280 12 -365 16 -95 -13 -100 -73 -13 -38 56 -40 61 -50 180 l-10
123 -9 -80 c-5 -44 -13 -84 -18 -89 -20 -21 -89 70 -89 117 0 31 -10 40 -27
26 -18 -16 -29 -5 -182 175 -69 82 -158 186 -198 232 -86 99 -98 120 -81 131
16 9 328 22 428 17 41 -3 86 -3 100 -2z m-558 -54 c73 -79 310 -362 340 -406
10 -15 14 -37 11 -66 -3 -24 2 -123 12 -220 9 -97 14 -183 11 -191 -3 -10 -20
-15 -46 -15 -49 0 -53 8 -70 135 -19 152 -22 165 -31 171 -12 7 -11 -17 1
-150 13 -139 11 -148 -43 -144 l-42 3 -12 100 c-6 55 -12 107 -12 115 -1 13
-2 13 -11 0 -5 -8 -10 -54 -10 -102 0 -101 -13 -124 -64 -114 -41 8 -46 19
-46 106 0 41 -3 92 -7 113 -10 66 -23 19 -23 -89 0 -116 -6 -127 -67 -122
l-38 3 -5 130 -5 130 -8 -90 c-13 -132 -22 -163 -54 -171 -14 -4 -38 -3 -52 2
l-26 10 3 107 c4 121 -12 149 -23 40 -14 -155 -20 -167 -77 -161 l-33 3 4 95
c1 52 1 93 -2 90 -3 -3 -11 -37 -17 -75 -15 -94 -31 -117 -78 -113 l-37 3 2
85 2 85 -22 -85 c-19 -75 -25 -86 -50 -94 -43 -16 -61 8 -48 65 13 55 14 150
2 129 -5 -8 -14 -49 -21 -90 -13 -84 -31 -120 -60 -120 -31 0 -37 25 -32 138
2 59 2 105 -1 102 -3 -3 -13 -50 -22 -105 -18 -112 -35 -148 -68 -143 -25 3
-26 13 -13 163 11 118 -7 102 -22 -21 -19 -148 -35 -172 -103 -162 -33 4 -35
37 -10 136 12 44 21 91 21 104 -1 45 -20 -7 -41 -114 -11 -57 -27 -113 -34
-124 -19 -29 -64 -40 -83 -20 -13 13 -13 21 1 73 9 33 19 88 22 123 l5 65 -15
-50 c-53 -177 -68 -216 -88 -230 -27 -19 -76 -19 -83 0 -3 8 6 49 20 92 24 73
56 196 56 217 0 42 -85 -197 -105 -291 -8 -40 -24 -53 -75 -60 -39 -5 -40 -5
-40 23 0 16 16 89 36 163 39 151 42 212 5 116 -12 -33 -38 -118 -56 -188 -18
-71 -37 -133 -41 -137 -5 -5 -25 -11 -44 -12 -31 -3 -35 0 -38 23 -2 15 13 89
32 165 39 152 40 158 26 149 -8 -5 -53 -142 -94 -286 -18 -63 -38 -86 -84 -95
-30 -6 -32 -5 -32 21 0 36 63 223 102 303 16 35 28 65 26 68 -16 15 -105 -169
-153 -317 -9 -30 -24 -68 -32 -85 -21 -46 -83 -69 -83 -31 0 7 32 109 70 226
39 117 70 218 70 224 0 22 -51 -95 -105 -243 -93 -255 -93 -254 -124 -273 -38
-22 -61 -22 -61 2 0 10 21 70 46 133 26 62 55 135 66 162 22 57 70 248 63 254
-5 6 -7 1 -35 -98 -48 -165 -182 -461 -228 -503 -24 -22 -82 -34 -82 -17 0 6
16 40 35 74 21 37 35 77 35 97 0 19 10 54 21 79 29 63 90 232 86 237 -4 4
-139 -301 -164 -371 -23 -66 -125 -211 -148 -211 -29 0 -25 13 72 223 107 234
145 331 182 469 74 272 88 425 51 564 -15 57 -16 77 -7 85 8 8 193 15 602 24
325 7 748 18 940 25 193 6 374 13 404 13 53 2 55 1 103 -50z m441 -516 c53
-54 50 -41 68 -255 13 -153 12 -157 -42 -149 -39 6 -55 33 -63 107 -3 33 -12
120 -21 193 -20 174 -17 180 58 104z m135 -154 c38 -40 56 -82 72 -170 14 -76
10 -98 -19 -98 -63 0 -91 44 -91 145 0 28 -5 69 -10 93 -17 70 -1 79 48 30z
m594 -179 c38 -76 86 -226 77 -240 -24 -39 -86 93 -115 246 -9 48 13 45 38 -6z
m-415 -28 c50 -60 52 -87 9 -84 -43 3 -74 29 -87 72 -26 86 13 92 78 12z
m-554 -41 c178 -11 420 -41 523 -65 145 -33 158 -40 238 -130 96 -108 112
-133 98 -147 -6 -6 -67 -15 -134 -19 -144 -10 -903 -47 -1128 -56 -199 -7
-189 -16 -202 172 -5 74 -8 161 -6 192 l3 58 40 7 c47 8 344 1 568 -12z m-702
-7 c10 -12 14 -49 14 -137 0 -117 -10 -275 -18 -283 -5 -4 -380 -28 -604 -39
-137 -6 -153 -5 -153 9 0 9 17 61 38 114 22 54 52 133 67 175 31 87 62 128 98
128 13 0 64 7 113 15 96 16 258 31 365 34 51 1 70 -3 80 -16z m-2146 -45 c3
-13 6 -119 7 -236 3 -190 5 -215 21 -226 20 -15 22 -37 5 -54 -9 -9 -8 -18 2
-39 8 -16 16 -31 18 -36 2 -4 -8 -11 -22 -17 l-26 -10 1 -387 c0 -214 4 -471
8 -573 4 -102 5 -193 3 -203 -8 -32 -36 -14 -44 28 -19 103 -45 911 -47 1439
l-1 249 25 44 c29 48 42 54 50 21z m3697 -108 c29 -10 92 -31 140 -45 63 -18
97 -34 122 -59 41 -38 46 -64 14 -70 -62 -13 -184 -15 -204 -3 -37 22 -154
161 -154 183 0 19 18 18 82 -6z m-3791 -230 c4 -102 7 -328 8 -502 0 -174 5
-350 11 -390 5 -40 15 -179 21 -308 6 -129 13 -273 16 -320 3 -61 1 -96 -10
-125 -36 -96 -152 -389 -191 -485 -24 -58 -51 -127 -61 -153 -17 -48 -60 -87
-96 -87 -8 0 -24 -6 -34 -14 -19 -13 -18 -15 18 -32 21 -10 37 -25 37 -35 0
-9 -16 -95 -36 -191 -91 -444 -85 -401 -91 -700 -3 -153 -9 -278 -12 -278 -4
0 -23 12 -42 26 -200 149 -684 445 -959 585 -129 65 -372 155 -490 180 -35 7
-50 16 -50 26 0 21 58 114 254 408 230 346 577 876 736 1125 75 118 253 391
395 605 288 435 371 566 470 738 94 165 98 162 106 -73z m4093 -9 c11 -18 -17
-163 -33 -169 -16 -6 -51 31 -101 107 -40 59 -29 71 61 71 37 0 70 -4 73 -9z
m-1786 -12 c-2 -6 -8 -10 -13 -10 -5 0 -11 4 -13 10 -2 6 4 11 13 11 9 0 15
-5 13 -11z m1615 -41 c27 -29 72 -82 98 -118 l49 -64 1 -101 c3 -536 10 -652
57 -890 67 -337 75 -386 64 -397 -13 -13 -66 27 -94 71 -29 45 -117 499 -119
611 -1 36 -5 90 -9 120 -6 37 -7 2 -5 -110 2 -91 11 -214 20 -275 24 -168 29
-241 17 -249 -17 -10 -68 40 -80 81 -6 21 -32 130 -57 243 -26 113 -49 207
-52 210 -7 6 1 -47 38 -244 17 -95 26 -163 20 -169 -5 -5 -17 -4 -29 2 -31 17
-89 89 -95 119 -3 15 -15 59 -26 97 l-21 70 4 -63 c6 -85 -11 -92 -70 -30 -49
53 -63 95 -65 198 -2 127 -17 137 -18 13 -1 -91 -4 -113 -15 -113 -8 0 -68 48
-133 108 -66 59 -214 191 -329 293 -496 441 -594 531 -594 544 0 8 5 17 11 20
6 4 142 13 302 21 422 19 881 45 886 50 2 2 47 4 100 4 l95 0 49 -52z m-1500
-46 c75 -60 957 -853 971 -874 9 -12 16 -34 17 -48 0 -14 3 -19 6 -12 9 23 39
12 94 -37 l55 -49 12 -93 c24 -180 36 -260 63 -402 11 -59 11 -69 -2 -83 -24
-23 -67 -2 -85 42 -22 51 -89 340 -110 469 -22 131 -28 120 -16 -25 10 -108
35 -226 78 -363 33 -109 33 -111 -18 -104 -56 8 -74 31 -88 119 -6 40 -27 123
-47 183 -20 61 -55 182 -79 270 -23 88 -43 150 -43 138 -2 -45 50 -293 95
-453 25 -91 48 -180 51 -197 5 -32 4 -33 -29 -33 -41 0 -72 20 -86 57 -6 15
-39 132 -72 258 -34 127 -68 250 -75 275 l-14 45 5 -45 c8 -68 71 -343 104
-454 16 -55 26 -104 23 -109 -8 -13 -104 -1 -119 15 -19 21 -94 340 -123 528
-8 51 -9 52 -10 15 -2 -66 48 -422 64 -461 20 -49 19 -71 -4 -79 -31 -10 -68
5 -80 32 -6 14 -16 71 -22 126 -5 56 -16 149 -25 207 -8 58 -18 141 -23 185
l-8 80 -2 -65 c0 -36 8 -121 18 -190 23 -145 30 -345 14 -361 -16 -16 -111 -1
-122 19 -5 10 -12 103 -16 207 -12 312 -23 352 -17 62 6 -292 6 -287 -50 -287
-60 0 -58 -6 -58 219 0 118 -4 200 -9 191 -5 -8 -12 -98 -16 -200 -4 -122 -11
-187 -18 -192 -21 -13 -65 -9 -82 8 -14 15 -16 38 -12 188 6 186 2 178 -16
-44 l-12 -145 -34 -3 c-18 -2 -39 2 -45 8 -7 7 -10 66 -8 187 3 109 0 173 -6
169 -5 -3 -11 -80 -14 -171 -6 -192 -16 -220 -67 -177 -30 25 -49 141 -43 273
2 59 0 114 -5 124 -7 11 -12 -50 -16 -185 -4 -116 -11 -208 -17 -215 -14 -17
-54 -24 -74 -13 -13 8 -16 30 -16 140 0 72 -2 129 -5 126 -3 -3 -9 -60 -15
-127 -5 -68 -14 -129 -21 -137 -7 -9 -25 -14 -43 -12 -28 3 -31 7 -34 42 -2
22 1 76 7 120 6 44 13 132 16 196 4 110 4 112 -5 35 -5 -44 -14 -102 -20 -128
-5 -26 -10 -70 -10 -96 0 -58 -22 -136 -46 -162 -9 -10 -27 -19 -39 -19 -42 0
-46 19 -25 121 11 52 19 129 19 174 l-1 80 -9 -60 c-33 -224 -61 -310 -104
-321 -18 -4 -32 -2 -42 9 -14 13 -13 25 5 113 27 130 31 157 22 147 -11 -11
-71 -238 -68 -254 3 -14 -38 -39 -64 -39 -28 0 -31 17 -14 93 8 40 18 96 22
126 3 30 12 68 19 85 7 17 16 74 18 126 l6 95 -10 -80 c-5 -44 -16 -103 -24
-131 -8 -28 -24 -84 -34 -125 -32 -125 -58 -185 -87 -198 -46 -21 -55 4 -29
79 27 77 85 410 72 410 -3 0 -15 -53 -27 -117 -53 -280 -126 -441 -177 -391
-11 12 -12 21 -3 44 9 24 70 251 70 261 0 2 -4 3 -8 3 -5 0 -24 -51 -42 -112
-44 -152 -75 -216 -106 -224 -41 -11 -45 6 -19 89 37 120 120 496 100 452 -5
-10 -25 -84 -75 -273 -43 -162 -85 -259 -124 -283 -34 -21 -45 -23 -64 -10
-10 6 -6 26 21 92 41 98 85 244 116 379 30 134 25 164 -8 45 -75 -269 -120
-393 -184 -504 -24 -41 -35 -51 -59 -51 -25 0 -23 13 22 148 40 121 74 264 84
357 5 46 4 45 -10 -15 -25 -109 -85 -289 -135 -405 -36 -84 -54 -113 -74 -124
-39 -19 -54 -2 -36 42 71 173 179 594 169 661 -4 27 -67 -218 -77 -299 -15
-119 -152 -437 -198 -458 -44 -20 -48 4 -13 84 62 144 151 442 136 457 -3 3
-8 -1 -10 -9 -65 -184 -120 -328 -146 -379 -45 -90 -107 -196 -126 -214 -19
-20 -54 -21 -54 -2 0 7 29 81 65 165 69 161 129 347 170 527 44 192 29 164
-50 -97 -62 -206 -108 -327 -175 -459 -107 -213 -120 -230 -167 -230 -33 0
-29 13 41 167 66 144 240 713 223 729 -5 6 -65 -165 -113 -321 -91 -299 -230
-621 -278 -643 -57 -26 -59 -11 -12 96 65 150 148 409 192 598 24 106 44 201
43 211 0 10 -9 -20 -20 -67 -10 -47 -32 -123 -48 -170 -17 -47 -57 -170 -91
-274 -90 -280 -195 -474 -267 -492 -46 -12 -47 10 -4 81 77 128 194 448 287
785 42 149 25 121 -29 -50 -29 -91 -69 -201 -88 -245 -20 -44 -44 -102 -53
-130 -10 -27 -28 -81 -41 -118 -39 -112 -197 -381 -232 -394 -35 -14 -29 19
28 147 129 290 214 524 305 838 112 388 147 595 143 857 -2 192 -3 181 17 189
17 7 520 41 749 51 77 3 284 15 460 25 176 11 408 24 515 30 107 6 204 13 215
14 50 8 64 4 98 -22z m-2113 -117 c20 -24 7 -399 -19 -555 -22 -128 -56 -270
-73 -304 -8 -14 -13 -15 -21 -7 -17 17 -23 847 -6 867 16 19 103 19 119 -1z
m-1688 -441 c-2 -225 -7 -586 -12 -802 l-9 -394 -27 -46 c-40 -68 -129 -202
-211 -318 -40 -56 -114 -169 -166 -250 -52 -82 -128 -198 -170 -259 -47 -68
-79 -124 -83 -146 -5 -28 -17 -45 -50 -70 -66 -49 -56 -89 23 -89 28 0 46 -5
49 -14 3 -8 -1 -54 -10 -103 -19 -115 -33 -250 -41 -396 -4 -64 -11 -120 -16
-123 -14 -9 -49 23 -140 125 -258 292 -500 526 -709 690 -30 24 -58 49 -62 56
-9 15 169 307 396 651 87 131 268 406 403 609 244 369 511 792 698 1105 54 91
103 171 108 178 29 38 32 2 29 -404z m1537 -321 c1 -123 -4 -157 -20 -147 -11
6 -12 246 -2 295 l7 34 7 -30 c4 -16 7 -85 8 -152z m-1499 117 c0 -22 -4 -40
-10 -40 -5 0 -10 18 -10 40 0 22 5 40 10 40 6 0 10 -18 10 -40z m1498 -359
c-2 -28 -7 -52 -13 -54 -11 -2 -19 87 -10 111 11 31 26 -5 23 -57z m3532 -9
c28 -27 39 -49 44 -82 17 -107 49 -261 72 -340 13 -46 24 -90 24 -97 0 -29
-76 -6 -113 34 -19 22 -28 60 -58 243 -11 69 -24 144 -29 168 -12 49 -13 96
-3 105 12 13 26 7 63 -31z m159 -139 c41 -37 42 -42 87 -218 25 -99 48 -190
51 -202 7 -29 -20 -31 -71 -6 -41 19 -41 17 -96 242 -57 234 -53 258 29 184z
m161 -143 c24 -24 90 -231 93 -291 2 -41 0 -44 -23 -44 -20 0 -30 10 -47 45
-26 53 -87 286 -78 300 10 16 33 12 55 -10z m-1759 -100 c10 -6 19 -14 19 -19
0 -5 -36 -64 -81 -132 -44 -68 -101 -164 -126 -214 -25 -49 -64 -115 -87 -145
-24 -30 -48 -65 -55 -77 -15 -29 -22 -30 -371 -48 -162 -8 -385 -21 -495 -27
-110 -7 -227 -13 -260 -13 l-60 0 1 31 c1 18 29 94 63 169 34 76 69 165 78
199 22 88 37 101 162 130 138 32 392 82 517 100 111 16 427 45 549 49 44 2 90
4 103 5 13 1 32 -3 43 -8z m324 -5 c334 -23 706 -70 910 -115 156 -34 421
-113 585 -175 108 -40 137 -53 220 -100 14 -8 37 -17 51 -19 29 -6 42 -34 27
-60 -7 -13 -27 -16 -106 -16 -53 0 -248 -9 -432 -20 -184 -11 -430 -23 -545
-26 -187 -6 -214 -5 -243 10 -18 9 -124 81 -235 160 -111 78 -230 161 -264
185 -58 39 -143 133 -143 159 0 17 32 32 60 27 14 -2 66 -7 115 -10z m1619
-67 c46 -46 57 -64 81 -141 35 -110 29 -120 -49 -84 -31 14 -56 28 -56 30 0 2
-13 55 -30 117 -39 152 -32 162 54 78z m-5544 -4 c0 -8 -4 -12 -10 -9 -5 3
-10 10 -10 16 0 5 5 9 10 9 6 0 10 -7 10 -16z m3644 -40 c3 -26 6 -138 6 -249
0 -161 -3 -205 -14 -214 -8 -6 -80 -17 -160 -23 -173 -13 -185 -9 -148 50 12
20 48 87 78 147 70 137 199 335 217 335 9 0 17 -16 21 -46z m70 13 c9 -36 20
-421 12 -450 -7 -30 -30 -36 -40 -11 -3 9 -6 121 -6 250 0 193 2 234 14 234 8
0 16 -10 20 -23z m68 -72 c0 -5 -5 -11 -11 -13 -6 -2 -11 4 -11 13 0 9 5 15
11 13 6 -2 11 -8 11 -13z m115 -76 c15 -23 47 -65 69 -94 127 -160 149 -217
89 -223 -40 -4 -59 17 -136 153 -34 61 -75 129 -90 152 -43 62 -38 93 12 68
15 -8 40 -33 56 -56z m-1704 -16 c-1 -22 -20 -85 -41 -139 -103 -253 -104
-255 -136 -270 -20 -8 -151 -20 -381 -34 -192 -12 -369 -24 -392 -27 -34 -4
-44 -2 -49 11 -17 44 34 75 376 231 63 29 181 85 263 125 187 91 328 150 347
147 11 -2 15 -14 13 -44z m3622 -52 c53 -49 103 -98 111 -109 13 -19 12 -22
-5 -32 -11 -5 -44 -10 -75 -10 l-55 0 -45 96 c-44 92 -57 144 -37 144 5 0 53
-40 106 -89z m-1994 19 c32 -53 44 -90 30 -90 -14 0 -101 109 -101 127 0 31
44 8 71 -37z m347 -110 c81 -56 183 -124 227 -153 44 -29 154 -105 245 -168
91 -63 323 -222 515 -354 359 -245 539 -372 597 -419 18 -15 74 -54 125 -86
50 -32 208 -141 350 -242 142 -101 283 -199 313 -218 65 -40 657 -448 915
-630 99 -69 248 -173 330 -230 83 -57 186 -129 230 -160 44 -31 175 -122 290
-202 116 -79 341 -235 500 -345 160 -110 329 -226 378 -257 48 -31 87 -61 87
-66 0 -27 -58 -6 -360 130 -429 193 -501 225 -641 281 -481 191 -860 280
-1369 320 -323 25 -883 -42 -1056 -126 -54 -26 -94 -59 -111 -90 -16 -27 -41
-12 -62 37 -10 24 -57 112 -105 197 -48 85 -111 204 -140 265 -72 151 -424
834 -531 1031 -49 88 -143 266 -210 395 -151 291 -194 368 -357 644 -148 248
-147 243 -39 253 47 5 59 9 51 18 -17 20 -77 27 -114 14 -42 -15 -70 2 -130
80 -41 53 -106 160 -106 174 0 21 46 -3 178 -93z m-328 -49 c25 -51 40 -96 37
-105 -10 -25 -93 -22 -107 3 -11 21 -14 183 -4 194 14 14 33 -9 74 -92z m2232
-88 c25 -21 162 -144 304 -274 142 -130 367 -332 499 -450 132 -117 335 -299
450 -404 116 -105 345 -312 510 -460 165 -148 453 -409 640 -580 719 -656
1225 -1111 1378 -1238 131 -109 144 -133 86 -165 -17 -9 -60 -36 -96 -59 -36
-24 -75 -43 -87 -43 -12 0 -77 39 -146 86 -69 48 -226 154 -350 237 -124 82
-304 205 -400 272 -265 185 -755 524 -845 586 -44 30 -255 178 -470 329 -214
151 -417 292 -450 315 -33 23 -121 84 -195 135 -74 51 -220 152 -325 223 -104
72 -224 156 -265 187 -41 31 -132 95 -201 142 -69 48 -131 93 -137 101 -15 18
-44 122 -78 282 -23 105 -26 146 -27 330 -2 164 2 232 16 310 10 55 20 114 23
132 5 33 7 34 100 41 12 1 41 -15 66 -35z m-217 8 c3 -11 -1 -57 -10 -103 -11
-53 -19 -161 -22 -296 -6 -219 -3 -255 39 -475 23 -122 18 -143 -27 -113 -36
24 -41 40 -61 216 -9 85 -21 166 -25 180 l-7 25 -1 -25 c0 -14 4 -83 9 -154 4
-71 6 -135 3 -143 -8 -21 -43 -11 -65 18 -15 20 -22 52 -28 128 -4 56 -11 105
-14 108 -3 4 -6 2 -6 -3 -3 -55 -20 -158 -28 -166 -12 -12 -67 15 -76 37 -3 9
-6 37 -6 61 0 28 -4 43 -10 39 -5 -3 -10 -17 -10 -31 0 -14 -7 -27 -16 -31
-21 -8 -68 29 -72 56 -3 17 -9 22 -22 18 -12 -3 -50 15 -100 47 -126 81 -760
518 -766 528 -4 5 -2 14 2 18 5 5 218 21 474 35 256 15 508 30 560 34 52 5
136 9 187 9 83 2 92 0 98 -17z m-1915 -11 c0 -5 -4 -10 -10 -10 -5 0 -10 5
-10 10 0 6 5 10 10 10 6 0 10 -4 10 -10z m219 -87 c27 -23 63 -75 97 -138 15
-27 66 -117 114 -200 171 -296 192 -336 186 -352 -6 -14 -9 -14 -27 3 -11 10
-63 79 -116 153 -54 75 -136 188 -184 252 -97 131 -174 262 -165 284 8 21 69
19 95 -2z m-238 -15 c18 -21 108 -217 125 -272 3 -11 32 -86 64 -166 108 -273
141 -390 191 -669 14 -82 8 -104 -33 -109 -41 -5 -58 21 -58 87 0 32 -7 80
-15 108 -8 28 -21 87 -29 133 -15 84 -31 125 -22 55 3 -22 13 -109 22 -193 15
-146 15 -154 -2 -173 -25 -28 -66 -22 -76 11 -4 14 -12 106 -18 205 -12 192
-21 261 -32 234 -4 -9 -2 -112 4 -228 10 -192 10 -214 -5 -229 -13 -12 -23
-14 -44 -6 -27 9 -28 12 -34 106 -8 120 -39 298 -52 298 -5 0 -7 -10 -4 -22 3
-13 9 -98 13 -190 8 -186 5 -198 -51 -198 l-32 0 -7 92 c-11 150 -34 300 -46
312 -10 8 -11 -37 -9 -199 l4 -210 -31 -3 -30 -3 -12 187 c-16 253 -32 263
-32 22 0 -154 -3 -189 -15 -202 -34 -34 -42 -11 -50 147 -4 83 -10 160 -14
171 -4 11 -11 -44 -15 -125 -3 -79 -9 -157 -13 -172 -8 -37 -43 -55 -79 -38
-24 11 -26 15 -19 58 8 55 -4 293 -15 293 -4 0 -11 -75 -15 -167 -4 -93 -12
-174 -17 -180 -14 -17 -33 -16 -52 3 -13 12 -16 42 -17 152 -1 187 -14 221
-21 57 -6 -154 -27 -228 -62 -223 -20 3 -21 8 -26 193 -6 215 -14 211 -28 -15
-11 -170 -14 -186 -44 -196 -37 -11 -41 8 -28 130 13 118 7 231 -12 220 -5 -4
-7 -25 -3 -53 8 -57 -10 -209 -31 -261 -15 -38 -43 -58 -63 -45 -6 3 -7 93 -4
228 3 122 3 219 -1 216 -3 -3 -10 -80 -16 -170 -12 -220 -41 -308 -97 -297
-25 4 -28 44 -9 128 18 77 22 230 6 230 -5 0 -10 -19 -10 -42 -1 -61 -34 -246
-53 -290 -17 -40 -57 -59 -86 -41 -19 12 -17 81 5 152 16 53 19 231 4 231 -5
0 -10 -21 -10 -47 0 -27 -11 -95 -25 -153 -14 -58 -25 -119 -25 -137 0 -49 -9
-63 -41 -63 -33 0 -35 12 -20 115 12 75 24 271 17 264 -3 -2 -10 -38 -16 -79
-39 -266 -61 -330 -110 -330 -36 0 -41 23 -26 101 24 120 35 241 27 284 l-7
40 -8 -60 c-4 -33 -16 -107 -26 -165 -11 -58 -23 -125 -28 -150 -6 -33 -14
-48 -35 -60 -24 -13 -28 -13 -43 1 -15 15 -14 27 5 150 12 74 26 158 31 188
13 69 13 78 0 65 -5 -5 -18 -54 -30 -109 -11 -55 -25 -125 -31 -155 -30 -143
-34 -154 -58 -166 -13 -7 -30 -10 -39 -7 -16 7 -16 6 18 168 20 99 38 275 27
275 -3 0 -11 -33 -17 -72 -22 -134 -83 -361 -102 -380 -22 -22 -56 -24 -64 -3
-4 8 3 50 14 93 20 75 50 338 39 348 -2 3 -8 -17 -12 -43 -9 -69 -53 -276 -74
-358 -17 -67 -20 -71 -56 -83 -57 -19 -61 -6 -31 85 14 43 28 98 31 123 3 25
12 105 21 178 9 74 14 135 12 138 -3 2 -24 -87 -47 -198 -23 -111 -49 -214
-57 -229 -8 -16 -14 -38 -14 -51 0 -44 -13 -70 -38 -79 -43 -16 -48 1 -29 94
15 71 36 274 37 346 0 48 -9 13 -24 -89 -9 -58 -22 -132 -30 -165 -8 -33 -20
-86 -27 -118 -15 -71 -41 -107 -76 -107 -24 0 -25 2 -20 43 3 23 18 101 32
172 14 72 28 180 30 240 l5 110 -34 -190 c-49 -283 -89 -399 -142 -424 -44
-20 -49 -2 -25 93 29 113 59 291 66 385 5 74 4 73 -24 -57 -41 -184 -91 -381
-106 -419 -16 -37 -55 -66 -79 -57 -21 8 -20 12 5 76 30 75 88 333 104 463 7
61 16 130 20 155 3 25 -19 -62 -50 -193 -30 -132 -63 -267 -74 -300 -21 -69
-79 -228 -83 -232 -2 -1 -18 -10 -37 -20 -53 -26 -58 -9 -23 82 45 118 50 134
91 328 42 192 61 311 61 377 0 68 -10 36 -21 -62 -17 -171 -103 -475 -183
-649 -47 -102 -58 -118 -90 -135 -29 -14 -40 -16 -49 -7 -9 9 -3 28 26 80 20
38 37 79 37 91 0 12 18 90 39 173 41 160 87 394 96 487 3 34 -6 5 -24 -75 -76
-343 -155 -597 -232 -744 -38 -71 -82 -112 -100 -94 -9 9 -1 36 30 107 84 191
175 498 216 731 49 276 58 592 20 753 -19 84 -14 97 43 106 39 7 853 60 1157
76 208 11 610 33 1005 55 151 9 282 17 290 19 8 2 46 4 83 5 59 1 71 -2 88
-21z m126 -56 c79 -129 216 -409 209 -428 -5 -13 -9 -14 -22 -3 -30 24 -257
430 -269 482 -6 23 -4 27 13 27 15 0 34 -22 69 -78z m-2852 -115 c22 -35 38
-215 32 -367 -8 -194 -41 -417 -93 -630 -76 -314 -76 -316 -122 -267 -34 36
-45 122 -46 372 -1 252 -2 241 79 630 49 240 53 254 67 273 17 21 66 14 83
-11z m2998 -288 c22 -35 64 -111 94 -168 29 -57 68 -119 86 -137 17 -17 45
-63 61 -101 16 -37 48 -108 72 -158 23 -49 52 -115 64 -145 12 -30 41 -93 65
-140 25 -47 67 -142 94 -211 28 -70 66 -157 86 -194 19 -37 35 -73 35 -80 0
-7 36 -107 81 -222 45 -114 105 -278 135 -363 30 -85 70 -189 88 -230 18 -41
43 -104 54 -140 11 -36 41 -123 66 -195 57 -160 106 -313 106 -330 0 -8 -10
-26 -23 -42 -13 -15 -40 -57 -60 -93 -54 -97 -125 -190 -140 -184 -8 3 -27 57
-44 122 -193 747 -212 813 -396 1377 -139 425 -214 643 -337 975 -39 107 -100
278 -135 380 -35 102 -75 215 -89 253 -45 118 -27 131 37 26z m190 -73 c37
-47 84 -113 104 -148 20 -35 58 -87 84 -115 26 -29 59 -72 74 -95 14 -24 65
-103 112 -177 106 -167 148 -244 328 -606 80 -159 205 -409 280 -555 74 -146
144 -289 155 -319 24 -61 17 -77 -33 -84 -19 -2 -8 -4 26 -5 53 -2 59 -4 76
-33 24 -39 18 -56 -20 -64 -40 -9 -46 -25 -9 -25 23 0 40 -10 70 -42 47 -51
51 -75 13 -84 -16 -3 -41 -10 -58 -14 l-30 -8 31 -1 c63 -2 66 -43 6 -93 -16
-13 -32 -35 -35 -49 -7 -29 -76 -138 -99 -157 -21 -17 -43 -7 -58 26 -6 15
-48 128 -92 252 -44 124 -104 285 -134 358 -30 73 -91 232 -136 355 -101 277
-264 671 -440 1062 -339 752 -353 795 -215 621z m-6015 -75 c41 -22 284 -231
405 -349 111 -109 441 -470 445 -488 6 -26 -19 -15 -117 50 -188 124 -389 245
-586 353 -355 195 -374 206 -380 222 -4 9 2 22 13 31 11 8 36 27 55 42 21 16
49 55 68 93 17 36 38 65 46 65 7 0 30 -9 51 -19z m1144 -15 c200 -52 387 -135
665 -292 155 -88 386 -229 458 -279 33 -23 99 -65 146 -93 85 -51 189 -135
189 -153 0 -5 -6 -9 -14 -9 -7 0 -157 69 -332 154 -463 224 -663 312 -1044
461 -135 53 -255 100 -267 105 -33 14 -28 39 17 88 46 50 55 51 182 18z m77
-266 c102 -43 230 -95 284 -114 53 -20 116 -45 140 -57 23 -12 134 -63 247
-114 196 -89 528 -244 674 -316 38 -19 74 -41 79 -50 8 -13 -3 -56 -47 -180
-32 -90 -64 -170 -71 -178 -7 -8 -37 -17 -66 -22 -59 -9 -72 -18 -59 -39 7
-12 31 -15 106 -15 l97 0 9 -30 c24 -79 -13 -369 -88 -693 -37 -163 -56 -223
-124 -385 -113 -271 -165 -353 -231 -363 -77 -13 -77 -38 1 -49 27 -4 53 -12
59 -18 14 -18 43 -230 46 -342 2 -65 -4 -133 -16 -195 -10 -52 -27 -167 -39
-255 -25 -186 -175 -821 -260 -1097 -38 -122 -16 -121 -307 -23 -286 96 -408
129 -538 145 -123 15 -133 18 -139 38 -3 9 -11 121 -16 247 -6 127 -15 280
-20 340 -7 88 -36 1756 -32 1910 0 22 4 288 7 590 4 303 11 558 16 567 6 11 5
35 -2 64 -13 52 0 303 27 519 21 165 30 195 55 195 12 0 105 -36 208 -80z
m-1102 -189 c136 -76 291 -165 343 -198 52 -33 152 -94 223 -137 70 -43 144
-93 164 -112 l36 -34 -6 -763 c-7 -859 6 -2268 23 -2457 16 -180 18 -446 3
-461 -9 -9 -59 0 -220 39 -255 63 -599 128 -751 144 -64 6 -119 17 -126 24
-13 13 -16 57 -36 599 -13 358 -29 657 -41 755 -28 244 -19 1235 15 1625 8 94
20 267 26 385 15 299 40 649 47 680 7 31 22 50 38 50 7 0 125 -62 262 -139z
m5873 -70 c13 -25 13 -61 0 -61 -11 0 -30 42 -30 66 0 20 18 17 30 -5z m-112
-101 c77 -5 131 -14 145 -23 28 -19 128 -300 111 -317 -5 -5 -93 -17 -195 -25
-101 -8 -237 -20 -303 -27 -133 -13 -139 -11 -152 60 -4 19 -15 43 -25 53 -17
17 -19 36 -19 149 l0 129 88 4 c181 6 230 6 350 -3z m-493 -14 c17 -12 20 -30
23 -130 4 -125 -3 -150 -42 -144 -20 3 -22 12 -29 131 -6 95 -5 132 3 143 15
18 21 18 45 0z m-86 -5 c11 -7 12 -24 7 -80 -8 -78 -29 -149 -78 -253 -27 -60
-35 -69 -67 -77 -34 -9 -347 -38 -661 -61 -80 -6 -282 -24 -449 -41 -167 -17
-310 -28 -317 -25 -17 6 -18 54 -3 93 12 33 6 26 -45 -44 -48 -67 -76 -68 -76
-2 0 10 -23 62 -51 115 -27 53 -48 102 -45 109 7 18 337 98 350 85 10 -10 8
-17 -31 -77 -13 -20 -13 -21 9 -16 38 9 58 34 58 69 0 22 6 37 18 43 25 13
216 46 527 91 369 53 421 58 815 78 14 1 31 -2 39 -7z m-1768 -381 c45 -112
50 -157 17 -169 -29 -10 -424 -51 -495 -51 -60 0 -65 9 -33 62 11 18 22 52 26
76 6 41 10 46 53 65 100 45 327 117 360 114 32 -2 35 -5 72 -97z m1775 38 c-8
-42 -43 -73 -62 -57 -18 15 -18 18 6 57 12 20 28 32 41 32 19 0 21 -4 15 -32z
m94 -33 c0 -9 -7 -18 -16 -22 -18 -7 -39 11 -30 26 11 17 46 13 46 -4z m774
-37 c7 -13 41 -106 74 -208 33 -102 88 -268 122 -370 66 -200 152 -500 154
-539 1 -32 -12 -35 -50 -12 -36 22 -39 30 -111 264 -26 87 -49 149 -51 139 -2
-10 18 -98 43 -196 25 -97 43 -181 40 -187 -8 -13 -28 -11 -48 4 -10 7 -35 57
-56 112 -65 169 -103 260 -112 269 -11 12 31 -143 65 -243 40 -114 33 -147
-27 -133 -32 8 -77 121 -112 285 -5 27 -25 38 -25 14 0 -7 12 -73 26 -146 15
-82 22 -137 16 -143 -5 -5 -27 -8 -48 -6 l-39 3 -12 60 c-7 33 -15 95 -19 138
-11 124 -24 100 -24 -45 0 -141 -5 -158 -46 -158 -61 0 -77 42 -76 208 0 61
-4 112 -9 112 -5 0 -9 -70 -9 -155 l0 -155 -25 -6 c-38 -9 -71 17 -78 63 -4
21 -7 91 -7 155 0 77 -4 119 -11 124 -9 5 -11 -36 -7 -159 6 -187 5 -190 -59
-185 l-38 3 -6 93 c-6 100 -19 137 -19 55 0 -28 -3 -71 -6 -97 -6 -39 -12 -49
-33 -57 -17 -7 -33 -7 -49 0 l-23 11 7 158 c3 86 4 155 1 152 -3 -3 -11 -55
-16 -115 -17 -180 -20 -194 -42 -206 -30 -16 -58 -1 -74 38 -13 30 -13 51 -5
117 11 85 13 152 5 145 -2 -3 -13 -65 -25 -138 -11 -73 -25 -142 -31 -152 -7
-14 -21 -19 -54 -19 -24 0 -46 3 -48 8 -3 4 -1 31 4 61 12 76 23 257 15 250
-5 -5 -45 -263 -46 -296 0 -21 -48 -46 -75 -39 -27 7 -32 35 -16 91 4 17 11
75 14 130 7 115 -1 98 -33 -69 -11 -60 -25 -117 -31 -128 -14 -26 -55 -41 -80
-28 -22 12 -24 40 -8 139 5 38 9 93 7 122 -2 45 -6 30 -22 -90 -23 -164 -36
-191 -92 -191 -45 0 -50 14 -30 92 16 65 33 267 22 257 -3 -3 -15 -57 -26
-120 -38 -211 -52 -239 -117 -239 -56 0 -59 9 -35 107 21 86 31 187 20 198 -3
3 -11 -25 -18 -62 -17 -90 -57 -214 -77 -235 -19 -21 -66 -24 -81 -5 -7 8 -7
28 -2 57 13 68 22 238 12 215 -5 -11 -15 -65 -21 -120 -20 -166 -23 -172 -81
-184 -41 -9 -80 -7 -80 4 0 1 9 47 19 101 26 131 34 211 20 197 -11 -11 -59
-232 -59 -275 0 -30 -24 -48 -64 -48 l-26 0 5 158 c3 86 3 153 1 147 -3 -5
-12 -62 -21 -125 -22 -157 -30 -179 -72 -196 -40 -17 -73 -10 -73 14 0 9 9 60
20 112 38 181 20 201 -24 30 -32 -119 -51 -171 -69 -182 -16 -10 -55 -10 -61
1 -3 4 6 63 20 131 33 158 27 195 -9 60 -39 -143 -64 -198 -98 -215 -60 -32
-78 -13 -54 55 20 56 45 185 44 225 0 17 -13 -16 -30 -79 -49 -184 -92 -252
-145 -232 -18 7 -18 5 15 126 21 78 46 250 39 270 -2 7 -17 -45 -32 -116 -16
-71 -40 -165 -55 -209 -22 -67 -30 -81 -54 -89 -45 -16 -51 1 -28 90 25 97 51
254 42 254 -4 0 -19 -53 -35 -117 -44 -181 -73 -245 -116 -256 -42 -11 -46 8
-17 93 15 45 35 127 43 182 16 105 13 141 -5 67 -43 -177 -113 -349 -150 -368
-24 -13 -168 -51 -191 -51 -24 0 -26 26 -6 75 20 47 50 161 75 282 24 115 27
177 5 93 -89 -334 -159 -490 -221 -490 -29 0 -30 21 -3 65 31 50 57 135 80
257 26 135 23 199 -4 85 -25 -111 -59 -206 -113 -324 -38 -82 -54 -106 -80
-120 -57 -30 -59 -11 -19 128 50 173 103 439 88 439 -4 0 -27 -82 -51 -183
-24 -100 -58 -222 -76 -272 -18 -49 -36 -100 -40 -112 -14 -49 -105 -88 -105
-45 0 10 14 58 30 108 26 74 101 438 99 477 0 7 -20 -66 -44 -160 -64 -250
-131 -429 -181 -484 -16 -18 -45 -25 -56 -14 -3 3 10 54 29 113 44 138 103
351 103 371 0 9 -22 -47 -48 -124 -47 -136 -134 -329 -154 -341 -34 -21 -19
31 71 236 45 105 97 276 122 405 5 28 23 145 39 262 24 167 28 230 23 305 -5
80 -3 95 11 107 19 16 67 21 696 76 223 19 547 49 720 65 173 16 378 34 455
40 109 8 711 61 1390 123 22 2 82 4 132 5 86 2 94 0 107 -20z m-3181 -50 c2
-7 0 -31 -5 -53 -5 -22 -7 -47 -5 -57 3 -9 0 -21 -7 -26 -12 -10 -310 -37
-340 -31 -11 2 -21 9 -23 16 -8 22 295 161 354 163 12 0 23 -6 26 -12z m5436
-887 c26 -17 1 -29 -71 -36 -84 -8 -309 -40 -383 -54 -132 -26 -358 -87 -400
-109 -45 -23 -15 -26 38 -3 167 72 612 151 851 151 52 0 57 2 46 15 -22 26 4
43 30 20 24 -22 26 -35 4 -35 -12 0 -10 -6 10 -21 30 -24 34 -45 9 -53 -10 -2
-61 -8 -113 -11 -102 -7 -652 -96 -736 -119 -49 -13 -98 -35 -81 -36 5 0 43 9
85 19 133 34 381 79 552 101 203 27 338 24 421 -9 56 -21 245 -154 456 -321
59 -47 140 -108 178 -135 39 -27 108 -79 155 -115 47 -37 195 -147 330 -245
491 -357 491 -358 473 -376 -6 -6 -50 11 -114 42 -303 149 -521 233 -1009 387
-306 97 -437 133 -720 200 -300 70 -295 70 -590 87 -146 9 -309 20 -364 25
-54 6 -156 10 -226 10 -80 0 -131 4 -135 11 -10 15 100 172 140 201 5 4 62 8
125 8 63 0 121 4 128 9 26 16 -17 21 -117 15 -109 -8 -121 -2 -97 44 16 31 53
52 91 52 32 0 32 14 0 28 -14 6 -25 16 -25 21 0 26 185 117 297 145 248 62
716 116 762 87z m466 -31 c240 -35 333 -54 572 -120 192 -53 334 -100 394
-131 20 -10 83 -36 140 -57 58 -22 185 -74 284 -116 184 -79 191 -82 260 -118
22 -11 99 -44 170 -73 178 -72 491 -226 548 -270 27 -21 47 -44 47 -55 0 -26
-34 -49 -270 -187 -441 -257 -530 -305 -547 -301 -42 11 -1109 807 -1473 1098
-135 108 -284 227 -332 265 -49 37 -88 74 -88 82 0 20 71 16 295 -17z m-3142
-208 c9 -10 28 -52 43 -94 31 -88 25 -111 -29 -106 -28 3 -31 8 -48 73 -32
122 -33 126 -18 136 21 13 34 11 52 -9z m-313 -11 c5 -11 10 -65 10 -120 0
-99 0 -101 -25 -107 -46 -11 -55 8 -55 120 0 66 4 106 12 114 18 18 46 14 58
-7z m132 2 c20 -22 48 -116 48 -159 0 -17 -6 -36 -12 -42 -22 -17 -87 -25
-102 -13 -15 13 -33 188 -22 216 8 21 69 20 88 -2z m81 2 c20 -20 70 -172 63
-190 -7 -18 -40 -20 -53 -2 -16 21 -56 176 -49 192 7 19 20 19 39 0z m679 5
c69 -5 128 -15 147 -24 16 -9 39 -16 50 -16 23 0 44 -31 35 -53 -7 -19 -21
-22 -189 -42 -283 -33 -485 -50 -503 -44 -22 8 -86 153 -78 175 4 11 44 14
213 14 114 0 260 -5 325 -10z m-1002 -26 c6 -14 10 -66 10 -115 0 -83 -2 -90
-22 -99 -13 -5 -104 -19 -203 -30 -99 -11 -197 -23 -217 -27 -29 -4 -39 -2
-44 11 -8 20 62 224 85 249 24 25 86 34 244 35 l138 2 9 -26z m-430 -23 c0
-22 -28 -61 -44 -61 -22 0 -38 27 -31 50 12 38 75 47 75 11z m-201 5 c9 -11
10 -20 1 -35 -13 -25 -33 -27 -50 -6 -10 13 -10 19 5 35 22 24 29 25 44 6z
m101 -17 c0 -23 -46 -37 -63 -20 -9 10 -7 17 11 31 26 22 52 16 52 -11z m-196
15 c9 -3 16 -14 16 -23 -1 -29 -114 -234 -140 -252 -17 -13 -66 -24 -153 -35
-127 -16 -129 -16 -150 4 -30 29 -121 207 -114 224 6 17 137 41 367 68 80 10
148 18 152 19 3 0 13 -2 22 -5z m155 -82 c13 -24 -12 -62 -40 -62 -25 0 -35
25 -21 56 14 29 47 32 61 6z m-104 -18 c0 -10 -8 -20 -17 -22 -18 -3 -26 27
-11 42 12 11 28 0 28 -20z m199 11 c15 -15 12 -38 -7 -62 -23 -30 -73 3 -61
41 12 37 42 47 68 21z m-831 -13 c20 -22 97 -185 97 -205 0 -8 -8 -18 -17 -22
-10 -3 -130 -17 -268 -31 -137 -13 -329 -33 -425 -43 -274 -31 -410 -43 -427
-37 -23 9 -8 115 21 142 41 37 512 146 856 197 130 20 145 20 163 -1z m2547
-32 c19 -10 42 -74 55 -155 3 -22 20 -83 36 -135 34 -104 79 -299 79 -337 0
-14 -12 -45 -27 -71 -15 -25 -27 -60 -28 -77 0 -24 -4 -30 -22 -30 -12 0 -30
-10 -38 -22 -14 -20 -14 -26 -2 -43 13 -18 16 -15 65 55 59 84 81 94 100 42
25 -69 11 -127 -30 -127 -14 0 -18 -8 -18 -31 0 -39 -49 -120 -70 -117 -8 2
-19 21 -24 43 -4 22 -13 53 -19 69 l-11 29 -20 -25 c-12 -14 -34 -28 -50 -32
-24 -6 -33 -3 -48 16 -17 23 -18 23 -18 -34 0 -54 -3 -59 -48 -109 -27 -29
-53 -50 -59 -46 -6 4 -13 38 -15 77 -5 66 -12 90 -23 79 -2 -3 0 -49 6 -103
l10 -98 -39 -61 c-21 -34 -46 -63 -55 -65 -22 -4 -37 35 -37 96 0 55 -28 220
-40 242 -14 22 -12 -22 5 -175 8 -71 15 -162 15 -200 0 -63 -3 -74 -28 -105
-37 -43 -59 -36 -66 22 -3 24 -9 109 -15 191 -6 81 -15 155 -21 165 -7 12 -8
-64 -4 -258 l6 -275 -34 -50 c-18 -27 -40 -50 -48 -50 -16 0 -18 13 -40 375
-20 319 -31 268 -25 -117 l5 -351 -22 -26 c-29 -32 -70 -43 -90 -22 -12 12
-17 57 -21 223 -8 255 -23 502 -32 511 -4 4 -5 -159 -4 -363 l4 -370 -36 -9
c-64 -16 -69 -9 -69 100 0 134 -20 528 -30 589 -9 59 -11 -7 -14 -427 0 -141
-4 -259 -8 -263 -13 -14 -91 -26 -101 -16 -6 6 -9 86 -8 206 3 208 -7 425 -19
425 -4 0 -10 -138 -13 -306 -5 -210 -11 -311 -19 -321 -7 -9 -28 -13 -62 -11
l-51 3 1 50 c0 28 6 108 12 178 14 148 16 476 3 495 -4 8 -11 -58 -14 -155 -7
-188 -42 -515 -60 -553 -14 -28 -58 -39 -74 -18 -7 9 -7 93 -3 248 15 451 15
595 1 570 -5 -8 -12 -91 -16 -185 -11 -269 -32 -608 -40 -627 -8 -20 -72 -33
-89 -18 -11 8 -11 21 0 68 16 66 20 682 5 682 -5 0 -12 -84 -15 -187 -8 -225
-33 -529 -46 -554 -11 -20 -96 -37 -111 -22 -6 6 -4 58 6 139 15 126 23 725 9
712 -3 -4 -12 -131 -19 -285 -21 -412 -36 -553 -61 -574 -7 -6 -28 -9 -46 -7
-39 4 -38 0 -20 188 12 122 14 415 3 640 l-6 135 -8 -180 c-5 -99 -10 -247
-13 -330 -5 -175 -31 -434 -45 -451 -12 -15 -54 -23 -69 -14 -8 5 -8 48 0 161
12 158 4 593 -10 584 -4 -2 -10 -114 -14 -247 -7 -251 -32 -474 -55 -502 -15
-17 -96 -22 -105 -7 -4 5 1 56 9 113 23 159 48 755 31 737 -2 -2 -9 -69 -15
-149 -34 -428 -64 -669 -87 -707 -11 -17 -23 -21 -59 -21 -25 1 -47 4 -50 7
-2 4 5 42 16 86 33 138 60 412 64 665 l4 235 -14 -135 c-8 -74 -24 -225 -36
-335 -20 -194 -49 -376 -69 -439 -5 -17 -12 -43 -15 -58 -6 -32 -35 -53 -83
-62 -46 -8 -49 11 -13 70 42 67 70 233 81 482 12 240 -1 296 -19 81 -14 -174
-35 -288 -86 -467 -19 -68 -35 -131 -35 -141 0 -9 -5 -22 -12 -29 -14 -14 -64
-16 -73 -3 -3 5 4 43 14 83 23 84 36 205 51 468 5 102 12 226 15 275 10 175
-14 36 -30 -175 -8 -113 -22 -241 -29 -285 -8 -44 -20 -116 -26 -160 -24 -161
-69 -253 -119 -243 -18 4 -19 19 -2 138 8 66 29 291 32 355 0 6 0 111 -1 235
-3 287 -18 244 -24 -65 -3 -134 -10 -259 -20 -320 -9 -55 -21 -140 -26 -189
-6 -49 -19 -109 -30 -133 -17 -39 -23 -44 -47 -41 -24 3 -28 8 -31 38 -2 19 3
82 12 140 15 98 30 256 43 445 3 44 1 96 -4 115 -9 30 -11 19 -17 -80 -12
-172 -67 -534 -99 -640 -10 -37 -17 -46 -39 -48 -29 -4 -44 23 -34 62 3 12 12
96 21 186 9 91 20 181 25 200 5 19 11 98 14 175 4 130 4 133 -4 43 -5 -53 -20
-150 -33 -215 -14 -65 -33 -174 -42 -243 -9 -68 -24 -146 -33 -174 -18 -53
-48 -81 -72 -66 -12 8 -12 20 3 97 19 93 62 410 72 528 9 101 11 366 3 351 -4
-7 -10 -82 -13 -167 -9 -220 -82 -676 -121 -751 -8 -15 -14 -36 -14 -47 0 -28
-47 -58 -69 -44 -9 6 -15 17 -14 24 1 8 15 93 31 189 46 265 67 459 53 481 -6
11 -12 42 -12 71 l-1 53 -9 -40 c-12 -58 -11 -123 2 -131 17 -10 7 -85 -51
-374 -53 -264 -63 -293 -114 -318 -42 -21 -60 -9 -52 36 4 20 18 116 31 212
14 96 31 220 40 275 8 55 17 177 19 270 5 182 -3 162 -23 -55 -25 -265 -88
-656 -118 -730 -7 -19 -19 -38 -26 -42 -19 -12 -65 -9 -69 4 -4 12 31 207 57
313 15 65 39 331 33 380 -1 17 -18 -58 -36 -165 -19 -107 -40 -217 -47 -245
-7 -27 -16 -72 -20 -100 -6 -52 -20 -124 -36 -186 -6 -24 -18 -40 -35 -47 -51
-24 -54 -5 -24 162 38 218 51 324 70 551 11 127 22 259 25 295 3 35 3 62 0 58
-4 -3 -13 -78 -21 -167 -18 -210 -50 -452 -75 -571 -11 -52 -29 -140 -40 -195
-11 -55 -24 -114 -30 -131 -15 -49 -89 -70 -89 -25 0 9 14 91 30 181 17 91 37
233 46 315 8 83 24 189 35 237 10 48 19 96 18 105 -1 32 -29 -80 -54 -217 -80
-437 -129 -643 -161 -674 -20 -21 -63 -31 -76 -18 -11 11 34 210 77 342 13 41
31 129 40 195 8 66 22 161 30 210 16 96 19 225 6 290 -5 31 -9 10 -13 -90 -7
-156 -40 -336 -118 -655 -32 -129 -61 -255 -65 -278 -6 -38 -12 -46 -42 -59
-72 -30 -75 -13 -29 141 14 48 38 150 52 225 68 368 87 529 29 261 -50 -232
-101 -432 -142 -554 -37 -108 -37 -109 -81 -128 -62 -28 -70 -15 -39 64 28 71
126 462 152 608 10 52 28 136 41 185 22 84 31 145 19 133 -3 -3 -36 -128 -75
-279 -138 -546 -196 -715 -263 -763 -50 -37 -47 -5 18 192 34 103 72 234 84
292 84 414 126 648 119 656 -2 1 -31 -117 -66 -264 -34 -147 -80 -328 -102
-402 -64 -214 -140 -443 -156 -467 -17 -26 -46 -30 -64 -8 -14 17 18 151 100
420 87 285 142 514 202 835 36 194 41 235 45 420 3 117 0 246 -6 300 -9 79 -8
97 4 109 10 11 135 28 447 62 923 101 1683 181 2018 214 242 23 465 47 859 91
79 9 165 14 190 11 28 -3 56 0 71 8 14 7 144 25 290 39 146 14 279 27 295 29
58 7 66 7 85 -3z m-1865 -40 c21 -23 14 -47 -17 -59 -35 -13 -51 -3 -43 28 7
28 23 51 35 51 4 0 15 -9 25 -20z m-85 -14 c0 -26 -24 -51 -40 -41 -14 8 -13
38 2 53 19 19 38 14 38 -12z m190 -10 c32 -35 21 -58 -27 -54 -44 4 -55 28
-27 59 22 24 26 24 54 -5z m-1860 -121 c12 -15 9 -46 -12 -97 -13 -35 -36 -41
-260 -67 -198 -24 -258 -26 -258 -10 0 20 249 120 408 164 105 29 106 29 122
10z m4620 -84 c25 -5 128 -12 230 -16 315 -11 410 -28 393 -71 -3 -8 4 -17 18
-23 13 -5 35 -21 48 -35 37 -40 17 -52 -52 -32 -70 20 -244 56 -266 55 -9 0
17 -8 58 -17 100 -23 104 -40 9 -44 l-73 -3 102 -14 c80 -11 109 -12 129 -2
21 9 39 8 97 -10 85 -25 94 -32 245 -209 64 -74 155 -175 202 -225 48 -49 104
-111 126 -136 85 -100 265 -300 386 -429 71 -74 128 -141 128 -147 0 -25 -40
-12 -187 58 -177 84 -487 209 -783 314 -118 42 -235 87 -259 101 -24 13 -52
22 -62 19 -27 -9 -95 13 -128 41 -24 20 -34 23 -49 15 -14 -8 -38 -5 -88 9
-38 11 -142 33 -232 49 -188 33 -205 43 -200 106 l3 40 -50 13 c-28 7 -92 11
-145 10 l-95 -3 113 -12 c136 -15 152 -22 152 -68 0 -32 -3 -35 -28 -35 -50 0
-396 53 -424 65 -10 4 -23 26 -28 49 -6 22 -20 74 -31 114 -10 40 -19 79 -19
87 0 21 137 232 156 239 8 3 33 -2 54 -10 32 -13 51 -14 98 -6 l57 9 -61 2
c-34 0 -75 6 -93 12 -33 12 -41 33 -15 43 9 3 14 13 11 20 -3 8 3 26 14 39 21
28 57 34 269 47 136 9 200 6 270 -9z m-5180 -29 c0 -10 -5 -23 -12 -30 -15
-15 -48 -16 -48 -1 0 6 5 19 10 30 14 24 50 25 50 1z m6046 -77 c144 -21 450
-101 699 -181 475 -154 549 -180 720 -246 188 -73 507 -219 538 -246 32 -29
21 -56 -35 -87 -29 -16 -109 -62 -178 -103 -69 -41 -163 -96 -210 -122 -47
-26 -181 -102 -298 -169 -146 -84 -218 -120 -231 -116 -27 8 -209 199 -316
330 -194 237 -452 532 -620 708 -97 102 -184 195 -192 207 -15 21 -11 56 6 46
5 -3 58 -13 117 -21z m2808 -323 c8 -13 -40 -89 -279 -442 -126 -184 -379
-558 -563 -830 -404 -597 -490 -720 -509 -720 -19 0 -15 11 69 205 38 88 102
241 142 340 194 475 167 431 475 760 165 176 392 421 597 648 42 46 58 55 68
39z m-187 -109 c5 -14 -69 -100 -297 -343 -101 -107 -224 -241 -273 -298 -87
-98 -109 -113 -115 -80 -4 19 120 302 149 342 12 15 24 45 26 67 3 21 13 44
22 52 19 16 430 262 451 270 19 7 33 3 37 -10z m-4069 -169 c19 -6 29 -40 72
-251 48 -236 70 -325 116 -467 42 -132 42 -160 -3 -164 -26 -3 -34 2 -46 25
-51 99 -238 820 -223 859 5 13 39 12 84 -2z m-380 -16 c5 -7 13 -43 17 -79 l7
-67 -37 -41 c-21 -22 -43 -41 -50 -41 -28 0 -35 151 -9 190 18 27 43 50 55 50
3 0 11 -6 17 -12z m266 -4 c4 -9 20 -87 37 -173 40 -204 101 -457 133 -550 15
-41 26 -85 26 -97 0 -48 -86 -56 -114 -11 -8 12 -33 119 -56 237 -23 118 -48
230 -56 250 -13 35 -36 130 -54 223 -10 48 0 84 32 125 15 17 45 15 52 -4z
m268 6 c42 -12 47 -23 73 -160 37 -192 69 -314 126 -487 33 -100 59 -195 57
-210 -3 -25 -7 -28 -46 -31 -61 -4 -88 16 -96 71 -4 24 -23 97 -42 163 -124
414 -178 622 -165 642 5 8 18 14 51 21 3 0 22 -4 42 -9z m183 -24 c26 -11 36
-23 44 -53 5 -21 37 -152 71 -290 34 -139 81 -312 105 -384 51 -152 49 -165
-19 -153 -61 10 -74 20 -86 67 -6 23 -40 132 -75 242 -62 192 -145 506 -145
552 0 35 46 43 105 19z m236 -41 c121 -23 136 -30 152 -79 22 -62 53 -173 98
-351 23 -88 54 -201 70 -251 15 -49 30 -110 31 -135 l3 -44 -40 -3 c-22 -1
-46 2 -53 6 -7 5 -31 71 -53 148 -39 136 -153 493 -188 585 -17 48 -40 83 -48
75 -5 -4 50 -202 118 -426 16 -52 38 -138 49 -190 12 -52 25 -108 30 -123 11
-36 4 -54 -22 -60 -45 -12 -66 8 -88 85 -12 40 -50 161 -85 268 -76 235 -140
473 -132 494 8 20 50 20 158 1z m312 -68 c23 -10 38 -24 41 -39 3 -13 31 -124
62 -248 81 -326 115 -480 112 -503 -5 -31 -31 -42 -75 -31 -36 9 -38 12 -46
59 -19 119 -63 291 -114 445 -65 198 -96 317 -87 332 8 12 57 6 107 -15z
m-1099 -9 c3 -13 17 -97 31 -188 15 -91 36 -205 47 -255 54 -249 54 -275 -3
-275 -32 0 -57 21 -64 56 -3 13 -8 36 -11 52 -3 15 -12 70 -19 122 -8 52 -25
154 -39 225 -14 72 -26 144 -26 162 0 80 71 165 84 101z m-283 -19 c4 -13 7
-49 8 -80 1 -50 -3 -61 -35 -102 -20 -26 -43 -47 -50 -47 -17 0 -34 62 -34
130 0 52 2 57 42 92 48 42 59 43 69 7z m3989 -4 c0 -25 -203 -490 -237 -541
-18 -28 -76 -98 -129 -155 -293 -316 -334 -355 -334 -316 0 7 54 109 120 227
66 118 173 313 237 434 66 121 136 238 158 263 39 42 161 116 177 107 4 -3 8
-11 8 -19z m-2435 -19 c13 -9 26 -30 30 -48 13 -65 127 -420 171 -535 26 -67
46 -138 47 -163 l2 -45 -47 -3 c-59 -4 -88 11 -88 44 0 37 -19 107 -121 450
-49 165 -89 307 -89 314 0 16 63 7 95 -14z m-1435 -40 c0 -16 -18 -31 -27 -22
-8 8 5 36 17 36 5 0 10 -6 10 -14z m1666 -30 c146 -50 282 -100 344 -129 30
-13 114 -46 185 -71 140 -51 451 -189 474 -212 27 -25 -10 -53 -357 -276 -137
-88 -291 -163 -310 -151 -9 5 -44 62 -78 126 -34 64 -96 170 -137 235 -129
203 -256 464 -243 498 7 19 10 19 122 -20z m-1632 -23 c6 -21 21 -114 42 -258
7 -55 22 -145 33 -200 16 -83 17 -102 6 -114 -16 -16 -77 -8 -95 13 -6 8 -15
56 -21 108 -5 51 -18 140 -28 198 -35 189 -35 181 -6 219 38 53 60 63 69 34z
m3543 -72 c-6 -27 -278 -527 -485 -888 -81 -142 -121 -203 -133 -203 -19 0
-26 24 -99 365 -26 116 -40 206 -37 230 2 22 1 49 -3 60 -8 20 13 55 33 55 13
0 171 93 453 265 127 78 237 144 245 147 23 8 31 -2 26 -31z m-3823 -3 c15
-59 6 -98 -35 -154 -22 -30 -46 -53 -52 -51 -15 5 -32 87 -24 118 9 37 67 109
87 109 10 0 20 -10 24 -22z m106 -68 c-32 -50 -52 -59 -58 -27 -4 22 68 101
81 88 6 -6 -1 -27 -23 -61z m55 -33 c15 -58 62 -373 58 -384 -3 -9 -26 -13
-64 -13 -72 0 -74 4 -83 125 -3 50 -9 117 -12 150 -6 58 -5 61 31 103 41 47
62 53 70 19z m-145 -81 c0 -26 -53 -104 -76 -113 -8 -3 -20 -1 -26 5 -15 15 5
60 47 107 36 39 55 39 55 1z m-160 -70 c0 -32 -8 -54 -30 -84 -34 -48 -44 -51
-61 -21 -17 32 -5 95 26 134 22 30 29 33 46 25 14 -8 19 -21 19 -54z m178
-146 l-3 -105 -37 -3 c-30 -3 -40 1 -53 22 -29 45 -24 105 15 161 42 62 52 69
68 47 9 -12 12 -48 10 -122z m-306 3 c5 -39 -9 -86 -29 -100 -9 -7 -32 -13
-50 -13 -45 0 -44 27 3 91 41 56 71 64 76 22z m138 -2 c0 -33 -39 -94 -63 -99
-22 -5 -38 36 -25 63 33 64 88 87 88 36z m2132 -29 c20 -31 56 -94 80 -139 34
-64 40 -84 31 -94 -10 -10 -21 -10 -51 -1 -41 13 -49 23 -72 107 -7 22 -20 69
-31 105 -22 78 -22 80 -6 80 6 -1 28 -27 49 -58z m948 -24 c-1 -20 -29 -49
-105 -109 -38 -30 -101 -80 -140 -110 -38 -30 -92 -70 -120 -89 -60 -41 -180
-136 -253 -201 -30 -28 -76 -56 -110 -69 -94 -35 -127 -81 -80 -112 14 -9 19
-20 15 -31 -8 -22 -103 -23 -131 -2 -26 20 -40 19 -32 -1 4 -9 0 -27 -9 -40
-9 -15 -13 -34 -9 -53 5 -24 3 -31 -9 -31 -17 0 -62 50 -72 79 -8 26 -29 33
-62 20 -14 -5 -32 -8 -40 -5 -20 8 -15 44 8 57 12 6 53 36 92 66 40 30 119 83
177 118 58 34 155 93 215 132 61 38 144 89 185 113 41 24 116 71 165 104 143
96 279 176 298 176 9 0 17 -6 17 -12z m-3075 -48 c-5 -8 -11 -8 -17 -2 -6 6
-7 16 -3 22 5 8 11 8 17 2 6 -6 7 -16 3 -22z m3095 -3 c0 -14 -20 -37 -32 -37
-12 0 -10 24 4 38 16 16 28 15 28 -1z m850 -21 c0 -8 -9 -36 -21 -63 -11 -26
-49 -115 -84 -198 -128 -305 -336 -779 -351 -803 -9 -14 -20 -20 -25 -15 -5 5
-36 103 -69 217 l-60 209 41 66 c23 36 80 107 128 156 48 50 134 142 191 205
204 226 250 268 250 226z m-4086 -32 c23 -9 20 -39 -8 -71 -20 -24 -26 -25
-40 -14 -9 7 -16 27 -16 43 0 26 5 32 47 47 1 1 8 -2 17 -5z m253 -10 c3 -8 1
-20 -5 -26 -8 -8 -2 -16 20 -27 35 -18 72 -79 63 -104 -8 -19 -63 -28 -79 -12
-20 20 -69 153 -63 169 8 21 56 21 64 0z m-350 -10 c4 -13 -33 -64 -175 -238
-95 -117 -132 -147 -124 -102 5 27 207 332 228 345 23 13 66 10 71 -5z m251
-8 c4 -21 -13 -36 -44 -36 -27 0 -48 24 -40 45 9 24 80 16 84 -9z m910 14
c101 -6 195 -15 210 -21 15 -5 53 -37 84 -72 65 -70 79 -72 18 -2 -22 25 -40
52 -40 60 0 29 21 28 365 -11 635 -72 755 -98 755 -165 0 -10 -14 -27 -30 -39
-34 -24 -233 -120 -249 -120 -6 0 -22 18 -36 40 -25 40 -65 54 -81 29 -3 -6
-20 -9 -38 -6 -21 3 -52 -5 -94 -24 -76 -34 -197 -69 -238 -69 -37 1 -52 13
-154 128 -45 51 -84 91 -87 88 -3 -2 31 -46 74 -96 43 -51 82 -98 88 -106 18
-25 -16 -42 -135 -68 -323 -71 -455 -96 -468 -91 -10 4 -13 14 -8 37 3 17 2
36 -3 42 -5 6 -11 27 -13 46 -3 31 -9 38 -53 60 -54 27 -52 22 -39 110 7 47
-10 90 -36 90 -11 0 -28 5 -39 11 -17 12 -91 5 -91 -8 0 -3 7 -11 15 -17 22
-16 9 -143 -17 -165 -10 -9 -27 -24 -38 -33 -13 -12 -20 -31 -20 -55 -1 -40
-67 -177 -85 -176 -5 1 -17 24 -27 51 -9 28 -25 63 -37 79 -11 15 -47 89 -80
163 -32 75 -75 168 -95 208 -61 121 -82 112 252 112 158 0 369 -5 470 -10z
m-1328 -13 c0 -21 -176 -265 -212 -295 -28 -23 -38 10 -45 144 -8 165 -13 160
165 163 71 1 92 -2 92 -12z m-441 -21 c12 -15 30 -279 31 -452 0 -87 -2 -94
-32 -140 -55 -82 -60 -78 -185 113 -198 303 -263 413 -263 448 0 8 1 16 3 16
5 3 326 26 378 28 38 1 60 -4 68 -13z m759 -18 c-7 -19 -38 -22 -38 -4 0 10 9
16 21 16 12 0 19 -5 17 -12z m3234 -19 c25 -33 108 -366 111 -444 l2 -59 -60
-13 c-33 -7 -201 -45 -373 -85 -222 -50 -316 -68 -324 -60 -5 5 -12 30 -15 54
l-4 43 203 206 c276 280 397 391 421 387 11 -2 29 -15 39 -29z m-4488 -1 c14
-13 37 -45 52 -73 35 -65 181 -292 211 -328 23 -29 30 -61 14 -71 -5 -3 -87
18 -182 48 -96 29 -222 66 -280 81 -58 15 -182 53 -275 84 -191 63 -190 62
-157 153 14 39 25 54 48 63 33 14 360 54 522 64 12 0 33 -9 47 -21z m1130 -4
c15 -39 16 -37 -201 -354 -17 -25 -66 -98 -108 -163 -43 -64 -82 -120 -87
-123 -19 -12 -28 13 -35 93 l-6 80 35 39 c19 21 76 91 127 154 158 196 241
290 255 290 8 0 17 -7 20 -16z m264 -19 c16 -20 123 -293 147 -375 4 -14 21
-51 37 -83 38 -75 35 -99 -14 -111 -47 -12 -63 1 -72 56 -8 52 -21 41 -21 -20
0 -45 -1 -47 -39 -60 -21 -7 -47 -10 -56 -7 -18 6 -80 129 -80 160 0 15 6 17
48 12 26 -4 58 -9 72 -12 15 -4 33 0 45 9 20 15 19 16 -12 41 -43 35 -60 87
-39 120 15 24 15 25 -7 30 -22 6 -57 59 -57 85 0 6 14 19 32 30 l31 19 -29 6
c-46 10 -58 20 -73 58 -11 30 -11 40 -1 52 20 24 66 19 88 -10z m-106 -32 c17
-38 19 -53 10 -75 -9 -23 -7 -29 13 -42 17 -11 27 -33 36 -73 7 -32 16 -63 20
-69 5 -6 15 -27 24 -47 13 -32 13 -37 -1 -51 -9 -9 -32 -16 -54 -16 -31 0 -43
6 -58 28 -28 39 -35 68 -21 93 10 20 8 25 -14 41 -28 20 -55 85 -41 98 5 4 18
10 29 13 15 3 13 5 -8 6 -21 1 -31 9 -44 35 -22 47 -12 80 29 93 53 17 58 15
80 -34z m-1957 -22 c33 -8 44 -36 26 -70 -10 -17 -18 -19 -64 -14 -28 3 -55
10 -58 15 -3 5 -12 6 -20 3 -21 -8 -89 22 -89 40 0 22 76 42 101 27 16 -10 21
-10 26 4 4 11 12 14 27 9 11 -4 35 -10 51 -14z m4875 3 c0 -14 -293 -325 -325
-345 -5 -4 -25 -10 -42 -14 -30 -6 -33 -4 -33 17 0 30 151 178 290 282 55 42
103 76 105 76 3 0 5 -7 5 -16z m-9125 -4 c66 -6 149 -17 185 -25 36 -8 128
-26 205 -40 144 -27 383 -84 468 -111 63 -21 61 -40 -5 -48 -54 -7 -297 31
-673 104 -328 64 -375 79 -345 115 15 18 11 18 165 5z m5566 -50 c12 -44 9
-193 -4 -220 -7 -14 -21 -25 -32 -25 -15 0 -21 10 -28 45 -11 62 -1 211 15
222 21 13 42 4 49 -22z m568 -159 c33 -104 74 -219 90 -257 21 -49 26 -72 19
-81 -17 -21 -56 -15 -69 10 -7 12 -19 27 -28 34 -13 9 -14 16 -3 45 25 71 11
98 -53 98 -35 0 -52 -8 -110 -55 -74 -59 -89 -79 -99 -136 -4 -21 -12 -42 -19
-47 -15 -13 -118 -32 -169 -32 -48 0 -49 16 -6 79 17 25 99 147 181 271 163
245 174 260 193 260 7 0 37 -75 73 -189z m-2173 170 c5 -6 38 -20 74 -33 41
-15 68 -31 75 -45 9 -16 15 -19 28 -11 25 14 92 -20 92 -47 0 -17 -8 -20 -53
-23 -46 -3 -53 -1 -61 19 -7 21 -8 21 -19 -11 -7 -18 -12 -33 -12 -34 0 -1 22
-1 50 -1 61 0 75 -12 66 -59 -7 -35 -24 -60 -48 -68 -10 -4 -10 -10 -1 -29 15
-35 -13 -123 -42 -127 -47 -7 -65 -13 -65 -22 0 -6 11 -10 25 -10 29 0 40 -19
31 -55 -10 -38 -42 -65 -78 -65 l-33 -1 28 -21 c23 -17 27 -25 22 -49 -4 -18
-2 -29 4 -29 6 0 11 1 11 3 0 1 16 41 35 87 20 47 58 160 86 252 59 198 74
237 96 245 9 4 80 -14 157 -39 186 -61 252 -80 431 -128 83 -22 188 -51 234
-65 46 -14 98 -25 115 -25 35 0 54 -17 100 -85 32 -48 33 -67 4 -106 -32 -43
-66 -62 -128 -70 -30 -4 -125 -16 -210 -28 -128 -16 -285 -27 -336 -22 -6 1
-28 26 -49 56 -20 30 -45 55 -54 55 -10 0 -25 6 -36 13 -17 13 -17 15 0 63 10
27 23 54 28 61 11 15 1 33 -18 33 -8 0 -21 16 -30 36 -14 33 -17 35 -47 29
-18 -4 -51 -17 -73 -29 l-40 -22 3 -76 c2 -54 -1 -79 -10 -87 -7 -6 -27 -22
-45 -36 -24 -19 -34 -37 -39 -70 -10 -72 -14 -74 -160 -87 -72 -6 -139 -8
-148 -5 -22 9 -21 70 4 142 11 32 20 60 20 62 0 1 -9 -6 -20 -17 -11 -11 -33
-20 -50 -20 -35 0 -40 -15 -9 -25 19 -6 20 -12 15 -47 -11 -67 -31 -96 -77
-108 -22 -6 -50 -10 -62 -8 -19 3 -22 8 -19 48 2 25 12 60 23 78 20 35 79 169
79 181 0 3 -9 -10 -21 -29 -26 -44 -46 -60 -76 -60 -26 0 -31 -15 -8 -24 24
-9 17 -46 -18 -111 -35 -63 -89 -104 -120 -92 -33 13 -20 73 45 206 34 69 66
129 72 133 5 4 18 2 27 -3 10 -5 28 -9 41 -8 22 0 22 1 4 12 -65 41 -65 26 10
206 60 145 71 164 96 173 27 9 28 12 14 27 -20 22 -20 26 0 45 17 18 55 21 70
7z m2530 -31 c31 -67 20 -100 -32 -100 -50 0 -89 114 -41 123 41 8 62 2 73
-23z m-2667 6 c19 -23 4 -78 -60 -231 -92 -217 -181 -389 -203 -394 -17 -3
-18 2 -13 42 5 35 3 48 -12 61 -26 23 -48 20 -68 -11 -30 -44 -107 -114 -123
-111 -13 3 -17 46 -26 263 -8 176 -9 264 -2 272 14 17 117 47 273 79 72 15
146 30 165 34 52 11 57 11 69 -4z m3119 -28 c18 -18 15 -87 -3 -94 -23 -9 -45
15 -45 50 0 29 15 56 30 56 3 0 11 -5 18 -12z m-1223 -48 c7 -11 -28 -78 -63
-120 -15 -18 -24 -22 -32 -14 -14 14 -2 46 39 102 32 43 45 50 56 32z m1333
-124 c-2 -14 -12 -23 -32 -26 -24 -4 -32 -15 -53 -68 -45 -111 -111 -125 -105
-23 3 41 1 51 -12 51 -19 0 -20 33 -3 74 10 23 25 33 62 46 49 15 51 15 98 -9
37 -19 47 -29 45 -45z m-492 29 c21 -51 18 -62 -21 -81 -43 -20 -59 -10 -76
46 -17 55 -8 70 41 70 37 0 42 -3 56 -35z m-5301 -1 c132 -26 467 -123 572
-165 54 -22 81 -43 65 -53 -5 -3 -87 13 -183 35 -96 22 -295 65 -444 95 -154
32 -276 62 -285 71 -13 13 -13 16 5 30 24 18 145 13 270 -13z m1905 -191 c0
-226 -3 -258 -25 -267 -7 -2 -66 15 -131 40 -66 24 -218 69 -339 100 -121 30
-237 60 -257 65 -43 11 -50 34 -15 49 12 5 175 57 362 115 187 59 345 108 350
110 6 2 20 4 33 4 l22 1 0 -217z m2417 71 c5 -15 -41 -74 -59 -74 -14 0 -9 39
8 65 18 28 42 33 51 9z m1048 -14 c8 0 33 -93 29 -104 -6 -16 -36 -26 -76 -26
-31 0 -48 37 -48 106 0 49 12 57 59 38 18 -8 35 -14 36 -14z m435 -5 c0 -28
-36 -53 -53 -36 -7 7 -5 18 7 35 21 33 46 34 46 1z m-3795 -9 c12 -18 16 -55
17 -162 1 -196 -9 -292 -33 -305 -11 -5 -24 -7 -29 -4 -11 7 -14 477 -3 488
13 14 33 7 48 -17z m3561 -2 c8 -30 -11 -77 -29 -72 -13 5 -22 61 -13 84 9 23
35 16 42 -12z m1842 -27 c20 -39 23 -54 17 -98 -6 -46 -14 -59 -61 -106 -51
-51 -104 -83 -139 -83 -8 0 -24 9 -36 21 -19 19 -19 22 -5 44 9 14 16 33 16
44 0 29 47 80 83 89 31 8 32 11 30 55 -2 39 1 49 24 67 14 11 31 19 37 17 6
-2 21 -24 34 -50z m-2558 3 c0 -24 -26 -38 -42 -22 -8 8 -8 15 2 27 18 21 40
19 40 -5z m-1700 -44 c0 -8 -4 -17 -9 -21 -12 -7 -24 12 -16 25 9 15 25 12 25
-4z m1623 -56 c-2 -30 -8 -59 -15 -66 -18 -16 -80 -26 -98 -14 -32 20 59 146
99 138 13 -3 15 -15 14 -58z m-4370 28 c6 -21 -4 -48 -19 -48 -14 0 -20 41 -7
53 10 11 21 8 26 -5z m670 -12 c27 -16 116 -41 252 -70 235 -52 354 -88 387
-117 l23 -20 -40 4 c-50 5 -678 134 -722 148 -45 14 -41 36 10 59 23 11 43 20
45 20 2 0 22 -11 45 -24z m5705 -48 l-3 -63 -95 -2 c-52 -2 -106 -4 -119 -5
-42 -5 -35 21 11 41 23 11 40 20 36 20 -16 2 -183 -40 -193 -49 -5 -5 -44 -17
-85 -28 -44 -12 -64 -21 -48 -21 15 -1 62 8 103 20 79 21 116 22 122 2 7 -20
-33 -33 -155 -54 -64 -11 -178 -34 -252 -50 -287 -64 -432 -87 -790 -124
l-135 -14 110 5 c194 10 464 42 705 84 129 23 282 50 340 60 131 23 183 35
239 55 85 30 100 14 58 -60 -21 -36 -27 -40 -57 -37 -19 1 -51 -4 -73 -13 -23
-9 -64 -15 -100 -14 -34 1 -120 -10 -192 -24 -167 -33 -403 -66 -519 -72 -50
-3 -134 -10 -186 -16 -52 -5 -189 -16 -304 -24 -185 -12 -242 -22 -224 -40 5
-5 362 28 433 40 79 13 360 24 370 14 14 -14 -8 -26 -69 -33 -28 -4 -118 -18
-201 -31 -82 -14 -229 -34 -326 -45 -96 -11 -225 -26 -285 -34 -60 -9 -172
-22 -249 -31 -77 -8 -194 -22 -260 -30 -66 -8 -208 -19 -315 -25 -107 -6 -283
-17 -390 -25 -364 -28 -484 -34 -845 -44 -198 -6 -423 -13 -500 -16 -77 -3
-347 -8 -600 -11 -467 -6 -768 3 -1125 31 -102 9 -309 22 -460 30 -322 18
-483 30 -635 50 -60 7 -150 16 -200 20 -49 3 -145 17 -213 31 -68 13 -142 24
-165 24 -52 1 -116 15 -130 29 -8 8 -6 21 8 47 36 67 28 66 356 39 601 -50
925 -70 1454 -90 215 -8 410 -17 435 -20 25 -2 252 -4 505 -4 577 1 518 0 730
16 397 29 694 44 975 49 183 3 335 11 400 21 58 8 155 19 215 24 61 4 200 19
310 33 432 54 846 108 970 127 72 11 192 24 268 28 111 6 140 11 150 25 8 11
43 21 106 31 52 9 97 18 101 20 4 2 40 9 81 15 96 15 528 103 661 135 115 28
154 31 161 13 3 -9 13 -7 33 9 48 36 55 31 52 -39z m-6199 41 c66 -14 81 -32
58 -71 -9 -16 -17 -35 -17 -42 0 -16 -66 -93 -92 -107 -27 -15 -77 7 -89 38
-12 33 -11 150 1 174 12 22 60 25 139 8z m3744 -49 c9 -63 -9 -100 -48 -100
-31 0 -48 32 -40 71 8 35 53 91 69 86 6 -2 14 -28 19 -57z m-1130 1 c-2 -44
-26 -70 -47 -51 -32 26 -11 93 27 88 18 -2 22 -9 20 -37z m1675 30 c22 -14 10
-46 -19 -49 -34 -4 -57 22 -39 43 14 17 38 19 58 6z m2000 -26 c27 -30 41 -31
93 -4 47 24 69 14 69 -31 0 -15 9 -39 20 -53 25 -32 25 -45 -2 -74 -18 -20
-20 -28 -11 -56 11 -38 1 -77 -21 -77 -8 0 -21 -3 -29 -6 -18 -7 -47 22 -47
47 0 11 -7 36 -16 57 -16 36 -17 36 -23 12 -4 -14 -17 -29 -29 -35 -12 -5 -22
-18 -22 -27 0 -10 -9 -22 -19 -28 -13 -7 -21 -23 -23 -48 -4 -52 -32 -50 -75
6 -25 33 -33 54 -33 85 0 36 6 46 50 87 35 32 49 52 44 63 -3 9 2 23 15 33 14
13 18 25 14 46 -7 36 15 38 45 3z m-2695 -32 c-5 -15 -16 -28 -24 -28 -21 0
-23 34 -3 56 24 26 39 10 27 -28z m-4363 -22 c85 -22 198 -53 250 -69 52 -16
126 -35 165 -41 76 -14 95 -24 95 -52 0 -25 -54 -25 -275 2 -93 11 -185 17
-202 14 -35 -6 -42 -25 -18 -45 33 -27 3 -61 -31 -35 -14 10 -19 30 -22 84 -4
64 -7 74 -34 96 -52 44 -75 43 -120 -4 -24 -25 -48 -41 -61 -40 -42 2 -342 84
-342 94 0 6 63 13 155 17 85 4 178 11 205 16 58 11 39 14 235 -37z m1178 -13
c34 -28 2 -69 -68 -89 -54 -15 -69 -26 -81 -57 -9 -23 -13 -24 -67 -18 -93 10
-156 29 -160 47 -2 9 17 41 42 72 38 46 53 56 87 62 22 4 52 13 66 20 21 11
35 10 96 -7 40 -11 78 -25 85 -30z m-1998 18 c118 -20 211 -47 218 -65 7 -19
-45 -63 -72 -59 -13 2 -22 12 -24 27 -3 20 -8 22 -35 17 -96 -18 -103 -18
-119 -2 -9 9 -22 14 -30 11 -20 -8 -78 32 -78 53 0 37 13 39 140 18z m3270
-26 c0 -12 -28 -25 -36 -17 -9 9 6 27 22 27 8 0 14 -5 14 -10z m936 -26 c54
-30 68 -48 60 -78 -4 -18 -17 -28 -44 -37 -51 -15 -84 -9 -98 19 -22 44 -34
49 -34 15 0 -70 -46 -46 -56 28 l-6 46 43 21 c48 24 73 22 135 -14z m-2030 11
c45 -8 102 -19 125 -25 24 -6 100 -19 169 -30 267 -42 440 -99 440 -145 0 -22
-29 -26 -225 -32 -161 -4 -213 -2 -343 16 -84 12 -158 24 -165 27 -16 7 -67
91 -67 112 0 23 -11 37 -37 51 -13 6 -23 18 -23 26 0 19 22 19 126 0z m2969
-10 c0 -17 -7 -20 -39 -20 -45 0 -57 17 -24 33 34 16 63 11 63 -13z m-4800
-31 c74 -19 84 -28 60 -54 -24 -27 -72 -34 -119 -18 -30 10 -42 20 -47 42 -14
51 5 57 106 30z m2440 -24 c3 -5 -3 -10 -14 -10 -12 0 -21 5 -21 10 0 6 6 10
14 10 8 0 18 -4 21 -10z m410 -9 c3 -5 18 -12 34 -16 39 -8 53 -27 45 -60 -9
-35 -41 -54 -103 -62 -63 -7 -85 7 -77 51 12 61 80 120 101 87z m-2675 -19
c21 -17 21 -19 5 -35 -21 -21 -59 -22 -76 -1 -11 14 -10 19 10 35 29 23 33 23
61 1z m1519 -6 c9 -7 30 -18 46 -23 34 -11 42 -48 14 -66 -39 -25 -150 49
-135 89 7 18 55 18 75 0z m2281 0 c0 -3 -4 -8 -10 -11 -5 -3 -10 -1 -10 4 0 6
5 11 10 11 6 0 10 -2 10 -4z m-3652 -26 c75 -34 39 -73 -47 -50 -46 12 -60 32
-41 55 16 20 36 19 88 -5z m1237 -10 c0 -22 -29 -18 -33 3 -3 14 1 18 15 15
10 -2 18 -10 18 -18z m-221 -15 c111 -15 134 -23 121 -45 -8 -13 -140 -8 -223
7 -37 6 -53 30 -31 44 17 11 4 11 133 -6z m-756 -42 c2 -8 -6 -13 -22 -13 -25
0 -33 10 -19 24 10 10 36 3 41 -11z m133 1 c21 -13 -5 -24 -56 -24 -54 0 -79
14 -54 32 14 9 92 4 110 -8z m6932 -98 c49 -59 64 -93 49 -108 -9 -9 -15 -8
-26 7 -7 11 -23 31 -35 45 l-22 25 16 -32 c18 -39 20 -80 3 -86 -7 -2 -31 15
-54 39 -52 56 -74 56 -113 2 -36 -49 -40 -94 -11 -131 11 -14 20 -30 20 -36 0
-18 -43 -12 -70 9 -29 23 -70 26 -70 6 0 -19 25 -37 42 -31 18 7 48 -20 48
-43 0 -30 -19 -85 -32 -94 -7 -4 -33 -8 -58 -8 -26 0 -56 -7 -69 -16 -31 -22
-40 -10 -52 70 -10 64 -10 69 12 92 23 24 23 25 5 73 -23 65 -11 93 36 84 28
-5 31 -4 24 13 -19 48 -18 79 4 99 22 20 22 20 41 -4 16 -20 23 -22 48 -13 16
6 47 8 69 5 34 -5 42 -2 52 17 9 17 76 56 101 59 4 1 23 -19 42 -43z m-79
-115 c10 -11 19 -35 19 -53 2 -29 -1 -33 -21 -31 -16 2 -25 -4 -32 -22 -11
-28 -22 -31 -39 -11 -9 10 -9 26 -1 62 17 75 40 92 74 55z"/>
<path d="M4693 11068 c-6 -18 -14 -49 -17 -68 -3 -22 2 -13 15 24 10 33 18 64
16 69 -1 4 -8 -7 -14 -25z"/>
<path d="M7763 9620 c0 -25 2 -35 4 -22 2 12 2 32 0 45 -2 12 -4 2 -4 -23z"/>
<path d="M7652 9395 c0 -16 2 -22 5 -12 2 9 2 23 0 30 -3 6 -5 -1 -5 -18z"/>
<path d="M6932 9410 c0 -14 2 -19 5 -12 2 6 2 18 0 25 -3 6 -5 1 -5 -13z"/>
<path d="M5466 9373 c-8 -28 -26 -135 -26 -152 1 -35 18 15 30 87 11 68 9 108
-4 65z"/>
<path d="M6101 9333 c0 -12 -4 -30 -7 -40 -5 -14 -4 -15 5 -7 7 6 11 24 8 40
-3 21 -4 23 -6 7z"/>
<path d="M4441 9294 c0 -11 3 -14 6 -6 3 7 2 16 -1 19 -3 4 -6 -2 -5 -13z"/>
<path d="M5762 9235 c0 -16 2 -22 5 -12 2 9 2 23 0 30 -3 6 -5 -1 -5 -18z"/>
<path d="M7668 6963 c7 -3 16 -2 19 1 4 3 -2 6 -13 5 -11 0 -14 -3 -6 -6z"/>
<path d="M7730 6800 c0 -5 11 -10 25 -10 14 0 25 5 25 10 0 6 -11 10 -25 10
-14 0 -25 -4 -25 -10z"/>
<path d="M7825 6650 c-4 -6 5 -10 20 -10 15 0 24 4 20 10 -3 6 -12 10 -20 10
-8 0 -17 -4 -20 -10z"/>
<path d="M7890 6500 c-12 -8 -11 -10 5 -9 11 1 31 5 45 9 24 8 24 8 -5 9 -16
0 -37 -4 -45 -9z"/>
<path d="M7991 6381 c-9 -6 -10 -11 -2 -15 13 -8 31 1 31 15 0 11 -11 11 -29
0z"/>
<path d="M8060 6250 c-22 -7 -21 -8 13 -9 20 -1 37 4 37 9 0 11 -14 11 -50 0z"/>
<path d="M8115 6090 c-8 -13 5 -13 25 0 13 8 13 10 -2 10 -9 0 -20 -4 -23 -10z"/>
<path d="M8260 5959 c-91 -28 -93 -29 -88 -34 6 -7 171 34 182 45 16 16 -22
11 -94 -11z"/>
<path d="M8278 5818 c-21 -6 -38 -14 -38 -20 0 -10 36 -4 105 17 l40 13 -35 0
c-19 0 -52 -5 -72 -10z"/>
<path d="M8408 5736 c-48 -12 -90 -25 -94 -29 -16 -16 46 -5 131 22 106 34 86
38 -37 7z"/>
<path d="M8554 5681 c-122 -32 -220 -71 -192 -78 9 -2 37 5 62 16 25 11 95 32
156 48 60 15 110 31 110 35 0 12 -16 9 -136 -21z"/>
<path d="M3962 7310 c0 -14 2 -19 5 -12 2 6 2 18 0 25 -3 6 -5 1 -5 -13z"/>
<path d="M4802 7215 c0 -16 2 -22 5 -12 2 9 2 23 0 30 -3 6 -5 -1 -5 -18z"/>
<path d="M2111 6932 c-7 -70 -14 -230 -16 -357 l-3 -230 8 170 c5 94 14 252
20 353 7 101 10 185 8 187 -2 3 -10 -53 -17 -123z"/>
<path d="M2002 7000 c0 -19 2 -27 5 -17 2 9 2 25 0 35 -3 9 -5 1 -5 -18z"/>
<path d="M2261 6934 c0 -11 3 -14 6 -6 3 7 2 16 -1 19 -3 4 -6 -2 -5 -13z"/>
<path d="M2361 6618 c-56 -300 -81 -544 -85 -858 -2 -129 -2 -206 0 -170 17
306 26 434 34 490 5 36 14 124 20 195 6 72 22 201 36 289 14 87 23 160 21 163
-2 2 -14 -47 -26 -109z"/>
<path d="M2483 6505 c0 -33 2 -45 4 -27 2 18 2 45 0 60 -2 15 -4 0 -4 -33z"/>
<path d="M2432 6045 c-24 -220 -45 -445 -47 -500 l-4 -100 9 85 c5 47 16 155
25 240 9 85 27 248 41 361 14 114 24 231 22 260 -2 32 -21 -109 -46 -346z"/>
<path d="M2193 6355 c0 -22 2 -30 4 -17 2 12 2 30 0 40 -3 9 -5 -1 -4 -23z"/>
<path d="M2183 6240 c0 -41 2 -58 4 -37 2 20 2 54 0 75 -2 20 -4 3 -4 -38z"/>
<path d="M2582 6065 c0 -16 2 -22 5 -12 2 9 2 23 0 30 -3 6 -5 -1 -5 -18z"/>
<path d="M2573 5985 c0 -22 2 -30 4 -17 2 12 2 30 0 40 -3 9 -5 -1 -4 -23z"/>
<path d="M2563 5905 c0 -22 2 -30 4 -17 2 12 2 30 0 40 -3 9 -5 -1 -4 -23z"/>
<path d="M2552 5795 c0 -16 2 -22 5 -12 2 9 2 23 0 30 -3 6 -5 -1 -5 -18z"/>
<path d="M2523 5455 c0 -22 2 -30 4 -17 2 12 2 30 0 40 -3 9 -5 -1 -4 -23z"/>
<path d="M2373 5345 c0 -33 2 -45 4 -27 2 18 2 45 0 60 -2 15 -4 0 -4 -33z"/>
<path d="M2364 5110 c0 -52 1 -74 3 -47 2 26 2 68 0 95 -2 26 -3 4 -3 -48z"/>
<path d="M966 7024 c-4 -9 -16 -92 -26 -183 -15 -125 -21 -250 -24 -506 -4
-297 -3 -314 4 -130 8 222 21 409 45 669 15 153 15 186 1 150z"/>
<path d="M1072 6600 c0 -14 2 -19 5 -12 2 6 2 18 0 25 -3 6 -5 1 -5 -13z"/>
<path d="M1063 6445 c0 -27 2 -38 4 -22 2 15 2 37 0 50 -2 12 -4 0 -4 -28z"/>
<path d="M1191 6438 c0 -15 -6 -82 -11 -150 -25 -301 -40 -640 -38 -848 l1
-225 8 245 c4 135 12 313 18 395 19 275 33 571 28 590 -3 15 -5 14 -6 -7z"/>
<path d="M1042 6160 c-6 -85 -11 -202 -11 -260 2 -88 4 -69 15 115 17 265 14
361 -4 145z"/>
<path d="M1313 6080 c0 -25 2 -35 4 -22 2 12 2 32 0 45 -2 12 -4 2 -4 -23z"/>
<path d="M1290 5898 c-6 -62 -10 -131 -8 -153 2 -22 9 27 17 108 7 81 11 150
9 153 -3 3 -11 -46 -18 -108z"/>
<path d="M1273 5620 c0 -47 2 -66 4 -42 2 23 2 61 0 85 -2 23 -4 4 -4 -43z"/>
<path d="M4301 5538 c-27 -111 -75 -268 -98 -323 -29 -69 -39 -115 -26 -115
34 0 77 112 112 287 29 146 37 257 12 151z"/>
<path d="M3606 5440 c-10 -45 -16 -83 -13 -86 2 -2 12 32 22 77 9 44 15 82 12
85 -2 2 -12 -32 -21 -76z"/>
<path d="M8435 5035 c-5 -2 -37 -7 -70 -12 -52 -7 -39 -9 100 -13 88 -3 162
-4 164 -2 3 1 -1 8 -8 15 -11 11 -163 22 -186 12z"/>
<path d="M3586 3823 c-4 -38 -11 -99 -17 -137 -12 -87 -5 -99 9 -14 14 84 26
218 19 218 -3 0 -8 -30 -11 -67z"/>
<path d="M3852 3850 c0 -14 2 -19 5 -12 2 6 2 18 0 25 -3 6 -5 1 -5 -13z"/>
<path d="M4070 3859 c0 -8 -5 -47 -10 -88 -6 -41 -6 -80 -1 -89 5 -9 11 20 16
82 4 54 4 100 1 103 -3 4 -6 0 -6 -8z"/>
<path d="M3842 3775 c0 -16 2 -22 5 -12 2 9 2 23 0 30 -3 6 -5 -1 -5 -18z"/>
<path d="M3832 3695 c0 -16 2 -22 5 -12 2 9 2 23 0 30 -3 6 -5 -1 -5 -18z"/>
<path d="M3542 3490 c0 -14 2 -19 5 -12 2 6 2 18 0 25 -3 6 -5 1 -5 -13z"/>
<path d="M8285 4790 c-13 -6 14 -8 75 -8 76 0 87 2 55 9 -51 10 -105 10 -130
-1z"/>
<path d="M8748 4743 c6 -2 18 -2 25 0 6 3 1 5 -13 5 -14 0 -19 -2 -12 -5z"/>
<path d="M8808 4733 c6 -2 18 -2 25 0 6 3 1 5 -13 5 -14 0 -19 -2 -12 -5z"/>
<path d="M8863 4723 c9 -2 23 -2 30 0 6 3 -1 5 -18 5 -16 0 -22 -2 -12 -5z"/>
<path d="M8418 4673 c28 -2 76 -2 105 0 28 2 5 3 -53 3 -58 0 -81 -1 -52 -3z"/>
<path d="M8678 4663 c23 -2 59 -2 80 0 20 2 1 4 -43 4 -44 0 -61 -2 -37 -4z"/>
<path d="M8010 4572 c0 -10 46 -22 86 -22 13 0 24 5 24 10 0 6 -15 10 -32 10
-18 0 -43 3 -55 6 -13 4 -23 2 -23 -4z"/>
<path d="M8059 4454 c68 -21 149 -30 134 -14 -14 15 -83 29 -138 29 l-40 -1
44 -14z"/>
<path d="M8021 4346 c6 -7 180 -36 214 -36 51 0 14 18 -62 29 -71 11 -160 15
-152 7z"/>
<path d="M4980 2930 c0 -5 7 -10 16 -10 8 0 12 5 9 10 -3 6 -10 10 -16 10 -5
0 -9 -4 -9 -10z"/>
<path d="M4896 2872 c-4 -7 -24 -12 -44 -12 l-37 -1 28 -20 c29 -22 34 -47 16
-82 -17 -31 -30 -37 -52 -25 -29 15 -33 1 -7 -27 23 -24 24 -46 4 -100 -4 -11
-4 -17 -1 -14 12 10 108 272 104 283 -2 6 -6 6 -11 -2z"/>
<path d="M4950 2840 c0 -5 11 -10 25 -10 14 0 25 5 25 10 0 6 -11 10 -25 10
-14 0 -25 -4 -25 -10z"/>
<path d="M5001 2742 c-6 -11 -27 -26 -46 -32 -39 -13 -45 -25 -15 -33 31 -8
33 -30 9 -81 -20 -43 -25 -47 -53 -45 -41 4 -42 -4 -5 -40 l30 -30 10 27 c66
168 105 299 70 234z"/>
<path d="M4786 2565 c-9 -26 -7 -32 5 -12 6 10 9 21 6 23 -2 3 -7 -2 -11 -11z"/>
<path d="M8433 2393 c9 -2 23 -2 30 0 6 3 -1 5 -18 5 -16 0 -22 -2 -12 -5z"/>
<path d="M8363 2383 c9 -2 25 -2 35 0 9 3 1 5 -18 5 -19 0 -27 -2 -17 -5z"/>
<path d="M8205 2369 c-33 -5 -64 -11 -70 -13 -24 -10 86 -4 145 8 55 12 59 14
25 14 -22 0 -67 -4 -100 -9z"/>
<path d="M7308 2173 c12 -2 30 -2 40 0 9 3 -1 5 -23 4 -22 0 -30 -2 -17 -4z"/>
<path d="M7198 2163 c6 -2 18 -2 25 0 6 3 1 5 -13 5 -14 0 -19 -2 -12 -5z"/>
<path d="M8840 1800 c0 -21 27 -40 59 -40 21 0 26 15 15 44 -4 10 -18 16 -40
16 -27 0 -34 -4 -34 -20z"/>
<path d="M9740 1675 c-63 -29 -144 -63 -180 -74 -55 -19 -267 -61 -303 -61 -7
0 -7 -3 -1 -9 18 -19 286 24 379 61 66 25 235 119 235 130 0 13 -7 10 -130
-47z"/>
<path d="M10137 1701 c58 -26 634 -53 683 -33 19 8 -14 11 -135 12 -147 0
-382 12 -515 25 -41 4 -49 3 -33 -4z"/>
<path d="M11048 1673 c12 -2 30 -2 40 0 9 3 -1 5 -23 4 -22 0 -30 -2 -17 -4z"/>
<path d="M748 1603 c-71 -8 -38 -20 40 -15 116 6 167 20 72 19 -41 0 -92 -2
-112 -4z"/>
<path d="M10134 1450 c35 -11 220 -35 421 -55 159 -16 334 -18 425 -5 40 5 7
8 -120 9 -170 1 -336 14 -605 45 -144 18 -164 18 -121 6z"/>
<path d="M940 1440 c-8 -5 -57 -10 -107 -10 -55 0 -93 -4 -93 -10 0 -11 170
-12 209 -1 14 4 26 12 29 19 4 14 -17 16 -38 2z"/>
<path d="M883 1293 l2 -28 -385 -6 c-212 -3 -386 -7 -387 -8 -2 0 -3 -5 -3
-11 0 -12 187 -13 297 -2 40 4 142 2 230 -4 190 -15 255 -10 304 22 l35 24 86
-22 86 -22 103 19 c127 25 144 45 35 45 -41 0 -78 -4 -81 -10 -10 -16 -104
-11 -193 10 -116 28 -131 27 -129 -7z"/>
<path d="M9533 1263 c-29 -61 -82 -75 -288 -80 -181 -4 -215 -8 -215 -23 0
-14 356 -13 420 1 31 7 70 26 102 50 29 21 56 39 61 39 4 0 88 -25 185 -56
201 -63 492 -140 567 -148 37 -4 25 1 -45 20 -273 72 -464 129 -604 179 -85
30 -158 55 -161 55 -2 0 -13 -17 -22 -37z"/>
<path d="M1594 1276 c11 -9 24 -16 30 -16 12 0 7 5 -24 19 -24 11 -24 11 -6
-3z"/>
<path d="M1778 1233 c7 -3 16 -2 19 1 4 3 -2 6 -13 5 -11 0 -14 -3 -6 -6z"/>
<path d="M1833 1223 c9 -2 25 -2 35 0 9 3 1 5 -18 5 -19 0 -27 -2 -17 -5z"/>
<path d="M1485 1201 c-16 -5 -120 -17 -230 -27 -209 -19 -666 -25 -880 -12
-91 5 -103 5 -70 -5 40 -11 679 -17 920 -8 62 2 149 -2 200 -9 80 -12 94 -17
123 -46 18 -19 47 -36 67 -40 35 -6 53 -20 41 -31 -3 -4 -84 -16 -178 -27
-142 -17 -173 -24 -176 -37 -4 -22 48 -53 124 -76 52 -15 112 -17 494 -19 369
-1 447 -4 514 -18 51 -11 82 -14 88 -8 15 15 -17 28 -102 43 -50 8 -205 13
-460 14 -338 2 -500 11 -517 29 -3 3 -3 12 0 19 7 20 110 37 255 43 164 7 202
13 202 29 0 16 -7 18 -140 40 -221 36 -246 75 -50 75 86 0 113 4 145 20 22 11
33 20 25 20 -8 0 -59 7 -113 15 -133 20 -246 26 -282 16z m280 -31 c14 -5 25
-15 25 -21 0 -9 -29 -10 -112 -5 -114 7 -137 14 -123 36 9 14 167 6 210 -10z"/>
<path d="M3940 1180 c-14 -4 -84 -8 -157 -9 -76 -1 -134 -5 -138 -11 -4 -6 36
-10 113 -10 121 0 218 12 236 30 12 12 -17 12 -54 0z"/>
<path d="M3340 1126 c-16 -43 -44 -50 -204 -53 -82 -1 -151 -5 -154 -7 -10
-11 9 -37 35 -47 55 -21 257 -41 371 -37 108 4 115 6 189 45 42 22 78 44 80
50 2 5 -36 9 -96 9 -96 -1 -101 0 -145 32 -56 38 -64 39 -76 8z m110 -61 c49
-25 34 -55 -25 -55 -24 0 -45 25 -45 54 0 20 32 21 70 1z m-140 -45 c0 -5 -4
-10 -9 -10 -6 0 -13 5 -16 10 -3 6 1 10 9 10 9 0 16 -4 16 -10z"/>
<path d="M2895 1101 c-12 -39 -65 -46 -335 -45 -140 0 -298 6 -350 13 -182 23
-223 25 -218 10 2 -8 17 -20 32 -28 23 -11 36 -11 72 -1 27 8 65 10 97 6 227
-29 308 -36 422 -36 228 0 330 28 309 85 -8 21 -21 19 -29 -4z"/>
<path d="M4318 1093 c-1 -5 -2 -28 -2 -53 -1 -43 -3 -46 -56 -77 -34 -21 -67
-33 -90 -33 -23 0 -39 -6 -47 -18 -13 -22 -84 -43 -248 -74 -114 -22 -143 -23
-592 -23 -259 0 -475 -3 -479 -7 -16 -17 22 -37 89 -47 40 -6 106 -18 147 -26
131 -25 463 -59 845 -86 334 -24 902 -14 978 16 13 5 35 -4 74 -31 l57 -39
283 -3 c251 -3 304 -8 275 -26 -8 -5 -307 -75 -532 -125 -74 -16 -167 -33
-205 -36 -39 -3 -86 -8 -105 -11 -33 -5 -34 -7 -15 -20 10 -8 42 -14 72 -14
53 0 346 63 458 99 118 38 555 134 730 161 92 14 105 19 105 36 0 18 -18 18
-65 -2 -21 -9 -50 -13 -64 -11 -14 3 -61 -2 -106 -10 -64 -12 -149 -14 -441
-12 l-361 4 -42 30 c-80 57 -87 59 -151 40 -48 -15 -66 -15 -110 -6 -30 6 -60
17 -68 23 -7 6 -64 15 -126 19 -158 11 -415 69 -423 96 -8 24 59 47 139 48 43
0 70 3 62 8 -22 12 -17 29 16 61 17 15 38 42 46 58 16 31 38 34 86 14 13 -6
15 -3 11 13 -3 12 -3 21 0 21 3 0 80 -16 172 -35 224 -47 398 -75 465 -74 63
0 121 18 128 38 4 11 -3 12 -34 5 -22 -5 -86 -9 -144 -8 -103 1 -239 24 -583
98 -127 28 -146 30 -149 19z m-238 -277 c22 -28 208 -75 374 -96 94 -12 146
-31 146 -55 0 -32 -632 -14 -1034 30 -318 35 -387 49 -370 76 8 14 368 9 454
-6 160 -28 147 -27 125 -11 -11 8 -17 17 -13 21 9 9 226 53 269 54 21 1 42 -5
49 -13z"/>
<path d="M6815 1028 c-125 -40 -189 -49 -407 -55 -218 -6 -375 4 -492 31 -30
7 -60 10 -67 6 -19 -13 -2 -40 35 -55 115 -48 491 -118 701 -130 66 -4 135
-14 154 -21 24 -10 37 -11 47 -3 7 5 59 16 116 24 57 7 138 23 181 35 l78 22
44 -37 c88 -71 215 -111 440 -136 120 -13 401 -17 468 -6 96 16 32 27 -158 27
-226 0 -363 13 -495 46 -124 31 -179 60 -210 108 -24 37 -26 38 -75 33 -27 -3
-99 -17 -160 -31 -92 -22 -134 -26 -257 -26 -149 0 -431 24 -474 41 -50 18
-19 27 124 34 271 13 422 41 505 94 l32 21 -35 -1 c-19 -1 -62 -10 -95 -21z"/>
<path d="M10428 1033 c6 -2 18 -2 25 0 6 3 1 5 -13 5 -14 0 -19 -2 -12 -5z"/>
<path d="M10478 1023 c6 -2 18 -2 25 0 6 3 1 5 -13 5 -14 0 -19 -2 -12 -5z"/>
<path d="M9283 1014 c3 -3 86 -23 184 -44 98 -21 233 -53 300 -70 68 -18 128
-30 135 -28 14 5 -297 83 -490 123 -132 27 -138 28 -129 19z"/>
<path d="M10558 1013 c7 -3 16 -2 19 1 4 3 -2 6 -13 5 -11 0 -14 -3 -6 -6z"/>
<path d="M7947 986 c-10 -8 -22 -27 -26 -43 -5 -20 -14 -29 -33 -31 -15 -2
-32 -10 -38 -18 -17 -19 -139 -19 -187 1 -42 18 -53 19 -53 5 0 -6 19 -20 43
-30 48 -22 129 -26 207 -9 45 10 57 8 118 -15 74 -27 144 -47 149 -42 2 2 -25
22 -61 45 -86 56 -117 86 -110 105 8 20 38 21 54 1 7 -8 20 -15 29 -15 9 0 36
-9 60 -21 31 -13 48 -16 55 -9 5 5 35 10 66 10 66 0 86 -11 192 -106 68 -61
121 -104 182 -147 27 -19 11 -37 -27 -32 -18 3 22 -10 88 -27 85 -24 120 -37
120 -48 0 -28 -85 -34 -224 -16 -136 17 -195 20 -122 5 24 -5 46 -11 49 -14
29 -29 -154 -44 -535 -45 -240 0 -302 -6 -245 -24 73 -23 350 -34 427 -16 22
5 121 14 220 20 292 18 616 56 770 91 107 24 135 35 135 55 0 14 -7 15 -44 10
-48 -7 -145 8 -435 70 -182 39 -271 68 -271 90 0 16 11 18 137 32 99 11 133
24 133 49 0 17 -5 16 -105 -11 -69 -19 -125 -20 -210 -5 -133 23 -111 43 58
53 135 8 217 22 217 38 0 7 -28 7 -82 2 -174 -16 -557 9 -619 42 -35 17 -59
17 -82 0z m828 -336 c127 -43 140 -46 130 -30 -13 20 6 27 53 19 82 -12 132
-29 132 -43 0 -20 -40 -27 -69 -11 -15 7 -45 16 -66 20 -37 7 -39 6 -20 -8 16
-13 18 -18 7 -28 -10 -11 -32 -9 -117 8 -91 19 -110 26 -150 59 -79 67 -63 69
100 14z"/>
<path d="M4410 971 c0 -27 137 -84 230 -95 33 -4 18 3 -59 29 -57 19 -119 44
-137 56 -19 11 -34 16 -34 10z"/>
<path d="M5739 955 c-45 -32 -185 -62 -331 -71 -75 -5 -108 -11 -108 -19 0
-20 26 -22 150 -13 149 10 245 26 298 48 36 16 42 23 42 49 0 38 -5 38 -51 6z"/>
<path d="M9193 949 c-23 -11 -69 -22 -103 -26 -43 -4 -57 -9 -46 -15 32 -18
192 21 211 52 9 15 -15 11 -62 -11z"/>
<path d="M563 885 c6 -16 103 -27 214 -23 90 3 125 10 112 22 -10 10 -329 11
-326 1z"/>
<path d="M5026 891 c-7 -11 18 -21 55 -21 31 0 39 14 13 24 -23 9 -62 7 -68
-3z"/>
<path d="M4360 855 c19 -7 42 -13 50 -13 8 0 -1 6 -20 13 -19 7 -42 13 -50 13
-8 0 1 -6 20 -13z"/>
<path d="M4698 863 c7 -3 16 -2 19 1 4 3 -2 6 -13 5 -11 0 -14 -3 -6 -6z"/>
<path d="M7394 862 c3 -5 34 -13 68 -16 35 -4 81 -9 103 -11 l40 -5 -37 14
c-48 19 -183 33 -174 18z"/>
<path d="M5160 840 c-25 -10 -66 -19 -92 -19 -55 -1 -71 -16 -27 -25 58 -11
104 -6 149 17 81 41 57 63 -30 27z"/>
<path d="M4445 831 c11 -4 36 -11 55 -15 24 -4 29 -3 15 3 -11 4 -36 11 -55
15 -24 4 -29 3 -15 -3z"/>
<path d="M5520 795 c47 -8 116 -19 153 -26 38 -6 70 -9 73 -7 7 8 -177 40
-246 44 l-65 3 85 -14z"/>
<path d="M4900 760 c0 -5 12 -10 26 -10 14 0 23 4 19 10 -3 6 -15 10 -26 10
-10 0 -19 -4 -19 -10z"/>
<path d="M1285 750 c28 -12 63 -12 70 0 4 6 -12 10 -42 9 -36 0 -43 -3 -28 -9z"/>
<path d="M1800 704 c-309 -62 -396 -69 -670 -49 -124 8 -240 18 -257 21 -19 4
-33 2 -33 -4 0 -13 43 -18 290 -38 283 -23 385 -16 642 40 228 50 288 64 288
71 0 10 -50 2 -260 -41z"/>
<path d="M6938 733 c7 -3 16 -2 19 1 4 3 -2 6 -13 5 -11 0 -14 -3 -6 -6z"/>
<path d="M9795 733 c-11 -2 -31 -6 -44 -9 -17 -4 -21 -8 -13 -16 16 -16 122
-1 122 18 0 14 -23 16 -65 7z"/>
<path d="M6971 726 c8 -9 158 -38 171 -34 7 3 -17 10 -52 17 -36 6 -78 14 -95
18 -16 3 -27 3 -24 -1z"/>
<path d="M8508 643 c7 -3 16 -2 19 1 4 3 -2 6 -13 5 -11 0 -14 -3 -6 -6z"/>
<path d="M6655 629 c-209 -14 -215 -17 -25 -14 102 2 199 8 215 14 27 8 26 9
-20 9 -27 -1 -104 -4 -170 -9z"/>
<path d="M2735 565 c-65 -54 -226 -79 -432 -68 -87 4 -123 3 -123 -5 0 -19 70
-27 245 -27 192 0 262 12 326 54 l42 29 66 -20 c118 -34 289 -22 316 22 6 10
1 11 -21 5 -16 -4 -74 -9 -130 -12 -90 -4 -109 -2 -176 21 -41 14 -76 26 -79
26 -2 -1 -17 -12 -34 -25z"/>
<path d="M8223 580 c15 -5 58 -11 95 -14 l67 -5 -80 14 c-90 15 -124 17 -82 5z"/>
<path d="M4252 474 c2 -12 22 -25 53 -37 66 -25 206 -20 233 7 16 18 14 18
-59 12 -72 -5 -94 -2 -208 30 -19 6 -22 4 -19 -12z"/>
<path d="M6065 405 c-55 -25 -131 -55 -170 -67 -67 -20 -75 -21 -233 -9 -90 7
-165 11 -168 8 -8 -8 111 -28 224 -37 139 -11 215 5 352 75 103 51 131 54 290
30 52 -8 121 -15 152 -15 47 0 60 -4 72 -21 13 -19 21 -21 61 -15 26 4 65 14
87 22 53 19 103 18 283 -6 83 -11 170 -19 195 -18 33 1 37 2 15 5 -16 2 -126
20 -243 39 -221 37 -277 40 -277 14 0 -8 -11 -20 -25 -27 -29 -15 -76 -13 -73
3 1 7 -27 14 -75 17 -42 4 -107 13 -143 21 -37 8 -102 17 -145 21 -78 6 -80 6
-179 -40z"/>
<path d="M8955 342 c32 -15 124 -25 103 -12 -10 6 -42 13 -70 16 -36 3 -46 2
-33 -4z"/>
<path d="M2010 320 c-53 -15 -59 -18 -32 -19 31 -1 102 22 102 33 0 4 -1 6 -2
5 -2 0 -32 -9 -68 -19z"/>
<path d="M1787 310 c8 -8 39 -15 75 -16 l63 -3 -55 8 c-30 5 -64 12 -75 16
-16 7 -18 6 -8 -5z"/>
<path d="M3480 255 c-126 -66 -311 -114 -455 -116 -63 -1 -66 -2 -30 -9 52
-11 228 6 330 30 80 20 199 73 245 110 l25 20 -25 -1 c-14 0 -54 -15 -90 -34z"/>
<path d="M8380 268 c-52 -24 -216 -39 -415 -37 -66 0 -142 0 -170 -1 -47 -2
-48 -2 -20 -11 17 -5 138 -10 270 -12 255 -2 312 5 388 46 34 19 42 20 82 9
25 -7 89 -12 143 -12 53 0 138 -7 187 -15 159 -26 421 -16 441 17 5 8 -8 9
-42 4 -27 -3 -108 -9 -180 -13 -121 -5 -133 -4 -150 13 -18 18 -36 20 -214 19
-107 0 -213 3 -235 7 -31 6 -51 2 -85 -14z"/>
<path d="M7070 270 c-58 -4 -127 -8 -155 -9 -36 -1 -46 -4 -35 -11 33 -21 380
-4 404 20 11 11 -42 11 -214 0z"/>
<path d="M3730 261 c0 -19 89 -43 170 -47 l85 -3 -70 9 c-38 5 -96 18 -127 29
-32 11 -58 16 -58 12z"/>
<path d="M5948 203 c7 -3 16 -2 19 1 4 3 -2 6 -13 5 -11 0 -14 -3 -6 -6z"/>
<path d="M6058 193 c28 -2 76 -2 105 0 28 2 5 3 -53 3 -58 0 -81 -1 -52 -3z"/>
<path d="M8235 43 c-85 -13 -213 -12 -375 2 -80 7 -34 -10 79 -29 121 -21 187
-20 306 5 170 36 164 50 -10 22z"/>
</g>
</svg>
