<svg xmlns="http://www.w3.org/2000/svg" height="40" viewBox="0 -960 960 960" width="40"><path d="M878.577-518.449q-80.166-78.32-181.545-123.391Q595.654-686.911 480-686.911q-26.026 0-50.456 2.584-24.429 2.583-41.352 6.365l-40.975-40.461q25.462-6.744 57.988-10.994 32.526-4.25 74.795-4.25 126.923 0 236.769 48.833Q826.616-636 911.282-550.513l-32.705 32.064Zm-160.09 159.193q-14.987-14.321-26.436-23.59-11.449-9.27-29.36-19.539l-71.641-72.154q36.424 6.103 76.379 29.167 39.956 23.064 77.11 60.064l-26.052 26.052Zm81.693 247.154L464.077-449.103q-63.065 3.077-119.763 29.488-56.699 26.41-95.942 67.91l-32.911-32.064q40.205-40.718 92.68-69.917 52.474-29.199 114.192-38.327L270.5-643.334q-47.052 18.065-97.84 52.109-50.789 34.045-90.52 72.776l-31.884-32.064Q91.589-592 139.884-626.411q48.295-34.41 93.039-54.128l-94.859-95.577 22.91-22.91 663.513 663.513-24.307 23.411ZM480-120.09 379.91-220.41q19.013-19.616 44.68-30.667 25.666-11.051 55.41-11.051 29.744 0 55.41 11.051 25.667 11.051 45.398 30.667L480-120.09Z"/></svg>