<?xml version="1.0" standalone="no"?>
<!DOCTYPE svg PUBLIC "-//W3C//DTD SVG 20010904//EN"
 "http://www.w3.org/TR/2001/REC-SVG-20010904/DTD/svg10.dtd">
<svg version="1.0" xmlns="http://www.w3.org/2000/svg"
 width="1280.000000pt" height="1244.000000pt" viewBox="0 0 1280.000000 1244.000000"
 preserveAspectRatio="xMidYMid meet">
<metadata>
Created by potrace 1.15, written by Peter Selinger 2001-2017
</metadata>
<g transform="translate(0.000000,1244.000000) scale(0.100000,-0.100000)"
fill="#000000" stroke="none">
<path d="M6677 12128 c-2 -7 -2 -81 1 -163 10 -300 -37 -415 -283 -690 -136
-153 -197 -237 -251 -351 -60 -124 -85 -224 -91 -364 -7 -153 12 -259 87 -480
115 -341 159 -537 167 -742 4 -93 2 -157 -7 -197 -14 -65 -47 -129 -59 -115
-4 5 -13 50 -19 99 -24 187 -102 386 -219 561 -244 365 -397 734 -410 995 l-6
106 66 194 c105 307 136 466 122 622 -13 157 -80 322 -169 422 -56 62 -57 53
-16 -117 70 -286 46 -420 -126 -713 -104 -177 -130 -230 -169 -348 -72 -217
-65 -440 19 -655 27 -69 47 -106 161 -302 194 -334 305 -632 307 -819 1 -144
-26 -162 -61 -43 -29 101 -96 240 -158 333 -28 41 -99 128 -159 194 -151 166
-222 255 -318 398 -146 217 -220 372 -253 531 l-17 85 34 203 c31 180 35 223
35 383 0 143 -4 194 -18 250 -26 97 -86 219 -144 289 -52 64 -140 143 -149
134 -3 -3 19 -64 49 -135 81 -189 91 -229 91 -363 0 -134 -9 -174 -95 -403
-99 -264 -123 -396 -107 -591 17 -214 103 -389 308 -631 318 -374 496 -705
481 -897 -2 -33 -26 -18 -44 26 -38 93 -140 244 -232 345 -22 24 -105 96 -185
159 -180 143 -419 381 -528 527 -85 114 -172 276 -191 355 -6 26 -10 149 -10
280 1 250 -11 361 -52 495 -51 168 -161 318 -300 411 -102 68 -102 62 6 -111
151 -241 170 -374 101 -705 -50 -244 -60 -348 -46 -478 23 -210 104 -393 246
-551 26 -29 116 -113 199 -186 360 -317 567 -587 600 -782 4 -24 3 -43 -2 -43
-5 0 -38 36 -73 81 -72 91 -176 190 -267 256 -34 24 -135 82 -225 129 -432
226 -778 522 -859 735 -10 27 -32 123 -49 215 -16 91 -41 208 -55 260 -69 252
-188 436 -354 543 -64 41 -197 98 -207 89 -3 -3 39 -52 92 -109 217 -232 256
-337 255 -688 -1 -315 21 -459 93 -617 94 -203 232 -340 491 -488 285 -163
549 -360 666 -499 75 -90 127 -190 110 -211 -11 -13 -22 -6 -72 42 -76 72
-194 156 -286 205 -40 21 -148 63 -240 93 -385 127 -696 286 -882 450 -110 98
-135 142 -227 399 -162 455 -370 668 -713 729 -30 5 -32 4 -20 -11 8 -9 57
-49 109 -89 122 -93 149 -117 203 -185 88 -112 128 -228 167 -489 12 -80 30
-177 40 -215 87 -340 300 -575 639 -705 470 -181 690 -296 848 -443 124 -117
149 -206 36 -131 -88 59 -218 121 -318 153 -90 29 -110 33 -368 72 -419 63
-819 219 -974 381 -22 23 -78 108 -124 188 -99 175 -159 266 -235 355 -158
186 -376 296 -586 295 -88 -1 -85 -4 67 -82 128 -66 197 -113 262 -180 94 -98
136 -178 218 -423 83 -248 150 -369 274 -499 158 -164 330 -246 628 -301 421
-76 759 -197 902 -322 89 -78 93 -116 8 -79 -86 39 -213 75 -315 92 -79 12
-146 14 -367 8 -450 -11 -759 31 -980 135 -99 46 -136 79 -269 236 -220 258
-394 391 -591 451 -94 29 -409 24 -379 -6 5 -5 61 -24 126 -44 219 -66 310
-116 407 -221 65 -72 90 -109 181 -270 101 -179 141 -236 229 -328 144 -151
295 -235 506 -283 50 -11 163 -18 400 -24 348 -9 481 -22 651 -65 109 -28 228
-81 263 -119 37 -39 18 -50 -60 -32 -196 45 -386 41 -624 -13 -465 -107 -932
-105 -1143 4 -26 13 -110 77 -187 141 -223 188 -387 285 -551 329 -85 23 -218
30 -299 16 -88 -16 -198 -52 -188 -62 5 -5 67 -15 138 -24 170 -20 233 -37
331 -85 102 -50 186 -127 323 -295 183 -225 291 -319 455 -396 145 -68 216
-82 406 -83 131 0 188 4 275 21 234 47 341 57 585 58 193 0 246 -3 298 -17 99
-28 162 -58 162 -78 0 -16 -9 -17 -103 -13 -200 11 -363 -22 -627 -125 -357
-139 -748 -213 -975 -183 -106 14 -151 33 -328 140 -226 137 -371 198 -539
227 -149 26 -297 7 -432 -56 -126 -58 -123 -59 85 -60 321 0 406 -36 694 -295
145 -130 217 -182 321 -234 149 -73 268 -101 428 -101 140 1 223 18 452 93
361 119 559 160 769 160 115 0 149 -3 190 -19 82 -32 71 -48 -42 -61 -206 -25
-350 -77 -554 -200 -262 -157 -526 -274 -759 -336 -99 -26 -133 -30 -245 -31
l-130 -1 -170 68 c-292 117 -448 153 -625 144 -167 -9 -286 -51 -411 -144 -80
-60 -68 -63 101 -28 144 29 293 33 385 10 84 -22 204 -81 335 -165 294 -189
472 -249 710 -237 187 10 308 50 548 181 241 133 519 246 692 281 88 18 228
24 268 11 24 -8 30 -34 10 -40 -287 -84 -401 -145 -608 -328 -344 -302 -742
-521 -975 -535 -65 -4 -114 2 -260 31 -99 19 -233 40 -297 47 -257 25 -481
-34 -640 -169 -58 -49 -124 -120 -117 -127 2 -2 45 12 94 31 223 87 262 97
385 98 141 1 182 -10 431 -109 274 -110 310 -118 514 -119 148 -1 180 2 250
22 128 36 267 111 395 212 409 322 691 480 901 505 57 7 103 0 97 -15 -2 -4
-43 -29 -93 -55 -170 -89 -313 -209 -433 -365 -250 -323 -531 -580 -759 -694
-121 -61 -153 -66 -392 -66 -119 0 -256 -5 -306 -11 -308 -36 -521 -161 -654
-382 -13 -21 -21 -41 -17 -44 3 -3 43 18 88 48 130 84 258 145 344 164 109 25
244 16 469 -31 158 -33 197 -37 325 -38 170 0 271 20 405 83 162 76 246 145
429 355 305 349 576 565 761 607 46 10 58 10 65 -1 6 -9 -15 -29 -69 -70 -162
-120 -278 -258 -386 -459 -197 -367 -422 -648 -639 -802 -93 -66 -147 -84
-341 -114 -271 -42 -437 -92 -575 -172 -83 -49 -197 -157 -249 -236 -41 -63
-96 -185 -88 -194 3 -2 37 24 77 59 193 170 250 208 375 249 67 22 85 23 380
25 339 2 393 8 549 65 223 81 378 224 546 501 263 436 510 706 692 758 37 11
58 -12 29 -32 -33 -23 -139 -148 -186 -218 -66 -100 -111 -197 -166 -357 -114
-334 -248 -598 -406 -800 -63 -82 -157 -169 -211 -197 -15 -7 -108 -42 -207
-76 -299 -103 -434 -178 -570 -314 -83 -84 -137 -170 -175 -281 -25 -73 -37
-150 -21 -141 6 4 53 59 103 123 103 130 180 198 279 248 91 46 179 69 390 99
220 33 309 56 426 111 113 53 170 91 251 169 128 123 190 224 293 486 83 211
198 445 280 571 98 149 250 292 294 275 12 -4 4 -22 -36 -81 -109 -163 -176
-342 -204 -552 -55 -403 -178 -774 -328 -991 -68 -98 -99 -123 -287 -227 -250
-140 -408 -263 -506 -396 -43 -60 -99 -178 -118 -252 -19 -74 -32 -227 -19
-227 5 0 34 46 63 102 104 200 174 288 290 363 82 54 104 63 332 140 261 89
385 155 507 269 162 153 242 318 306 628 69 337 133 547 221 724 69 138 178
264 205 237 7 -7 4 -25 -14 -59 -36 -72 -84 -220 -103 -320 -12 -66 -17 -161
-19 -374 -3 -366 -30 -576 -102 -805 -59 -186 -109 -256 -288 -399 -183 -147
-252 -212 -331 -310 -127 -159 -187 -315 -188 -491 -1 -106 9 -179 24 -170 4
3 27 63 51 133 49 148 75 204 135 288 71 101 151 160 382 282 84 45 185 104
225 132 150 103 279 258 342 410 64 152 81 256 90 535 13 447 89 786 207 929
16 20 37 36 47 36 16 0 15 -7 -5 -90 -31 -121 -48 -287 -40 -390 4 -47 20
-152 36 -235 49 -256 63 -412 57 -655 -9 -350 -44 -454 -213 -640 -214 -235
-333 -427 -375 -605 -18 -74 -20 -110 -16 -205 5 -115 36 -250 57 -250 6 0 10
4 10 9 0 40 44 290 61 341 50 157 146 275 352 432 165 125 277 235 346 338
153 229 190 449 137 811 -50 341 -58 632 -21 814 19 96 78 225 103 225 15 0
17 -16 17 -157 1 -222 25 -337 120 -558 138 -326 222 -702 212 -950 -5 -146
-20 -190 -111 -343 -87 -148 -167 -309 -199 -403 -58 -168 -70 -340 -32 -484
17 -67 91 -225 105 -225 6 0 7 69 3 173 -11 313 31 416 287 707 233 266 320
464 320 728 0 171 -13 228 -123 547 -100 287 -149 521 -150 710 0 105 15 193
42 235 15 23 21 9 36 -91 30 -198 99 -377 212 -545 192 -287 342 -609 399
-859 10 -46 18 -120 18 -175 1 -92 -2 -101 -71 -305 -86 -252 -103 -322 -110
-481 -7 -158 11 -256 72 -379 49 -99 138 -220 143 -193 2 8 -11 71 -29 139
-22 86 -33 157 -37 230 -8 175 29 284 192 562 83 142 127 240 158 355 18 64
22 104 22 237 -1 145 -3 168 -28 249 -34 113 -76 203 -158 341 -258 438 -386
805 -339 975 13 47 32 25 66 -77 65 -194 148 -329 306 -498 255 -273 456 -575
539 -810 46 -129 49 -218 16 -409 -67 -382 -54 -592 47 -796 33 -67 60 -104
130 -175 51 -51 91 -85 94 -78 2 7 -20 71 -51 142 -76 181 -90 244 -84 383 4
103 9 125 52 248 26 74 65 185 87 247 54 155 73 270 66 413 -11 244 -91 424
-293 662 -240 283 -410 549 -473 740 -24 72 -33 188 -16 195 6 2 26 -27 44
-64 88 -181 211 -326 406 -482 304 -242 536 -496 649 -711 71 -135 76 -164 76
-402 0 -230 11 -364 40 -480 41 -166 101 -277 206 -382 67 -68 178 -145 190
-133 3 3 -24 53 -60 111 -180 286 -199 409 -120 776 36 164 38 185 38 345 0
196 -15 270 -85 415 -67 141 -149 243 -292 366 -301 258 -519 501 -607 674
-46 91 -75 210 -51 210 4 0 21 -19 36 -42 41 -62 199 -222 276 -278 36 -28
134 -85 217 -129 387 -204 695 -444 831 -646 60 -90 73 -129 106 -320 63 -366
143 -555 300 -711 67 -67 99 -90 176 -127 102 -50 139 -63 139 -50 0 4 -47 60
-105 123 -213 230 -245 326 -245 730 0 252 -11 346 -58 477 -48 136 -106 227
-217 339 -110 111 -135 130 -316 235 -351 204 -584 388 -700 552 -97 138 -89
195 13 102 149 -136 312 -227 531 -296 450 -141 849 -372 984 -570 17 -24 61
-127 98 -229 74 -202 133 -328 203 -433 62 -92 193 -214 278 -259 93 -49 274
-101 274 -79 0 5 -53 50 -119 99 -235 180 -305 298 -352 589 -62 392 -107 518
-246 694 -106 132 -287 253 -481 323 -373 133 -684 299 -826 441 -114 114
-130 190 -25 119 81 -54 220 -122 319 -154 52 -17 163 -40 267 -55 453 -66
796 -180 1004 -334 81 -60 97 -80 195 -251 123 -215 182 -298 289 -406 159
-161 304 -231 499 -242 71 -4 97 -2 92 6 -4 6 -64 41 -134 77 -271 140 -349
239 -467 587 -101 298 -203 463 -368 593 -86 68 -223 142 -317 170 -30 8 -154
36 -275 60 -454 91 -717 191 -862 328 -49 46 -66 77 -43 77 5 0 44 -14 87 -31
42 -17 124 -42 182 -57 106 -27 107 -27 424 -24 490 4 736 -26 977 -119 111
-43 172 -91 290 -231 250 -296 421 -424 640 -479 71 -18 103 -21 200 -16 110
5 174 17 154 29 -5 4 -72 25 -148 48 -157 47 -225 78 -311 143 -95 72 -142
135 -274 367 -46 79 -107 177 -137 216 -118 157 -279 275 -455 334 -128 44
-194 51 -539 60 -353 9 -469 21 -640 66 -153 40 -280 106 -280 146 0 16 5 19
23 15 181 -45 428 -54 567 -23 356 81 498 100 765 100 217 0 285 -7 405 -46
87 -27 112 -44 264 -171 167 -138 283 -217 399 -272 140 -66 200 -80 352 -79
114 0 140 4 213 28 45 15 82 31 82 35 0 5 -46 14 -102 20 -361 41 -458 97
-709 406 -216 266 -378 380 -627 442 -94 24 -346 24 -462 0 -270 -56 -657 -83
-830 -58 -142 21 -256 64 -244 94 3 9 48 12 167 12 178 1 275 16 407 65 41 15
136 51 211 78 281 105 561 164 789 165 195 2 236 -10 420 -120 266 -159 406
-220 574 -249 162 -29 315 -5 469 72 37 19 67 36 67 39 0 3 -82 5 -182 4 -317
-2 -412 37 -679 280 -142 129 -246 204 -353 256 -125 61 -225 86 -371 92 -158
7 -253 -10 -480 -86 -200 -67 -399 -120 -550 -147 -210 -37 -475 -17 -475 36
0 16 7 20 34 20 53 0 204 28 291 55 89 27 231 93 315 147 260 167 626 319 873
363 159 29 231 20 417 -53 296 -114 448 -152 613 -152 158 0 323 55 451 151
74 56 61 59 -105 24 -149 -31 -293 -35 -390 -10 -79 20 -200 78 -299 142 -142
93 -233 145 -313 179 -226 97 -463 109 -687 34 -47 -15 -204 -89 -350 -162
-255 -130 -443 -208 -580 -242 -159 -38 -302 -42 -336 -9 -8 9 -13 17 -11 19
2 2 43 15 93 29 105 31 267 106 354 165 34 23 105 80 158 127 361 318 754 535
997 550 66 4 111 -1 255 -31 240 -49 388 -62 521 -47 117 13 242 52 326 102
66 40 211 174 200 185 -4 4 -51 -10 -105 -31 -195 -76 -246 -88 -372 -89 -141
0 -185 11 -425 109 -265 108 -315 120 -515 120 -188 0 -257 -14 -407 -85 -96
-45 -141 -74 -288 -190 -350 -275 -636 -433 -833 -462 -139 -20 -148 3 -24 66
166 84 308 200 419 345 237 306 511 566 727 690 143 82 156 84 476 92 312 7
389 17 537 71 111 40 213 108 293 195 63 69 131 173 112 173 -5 0 -51 -27
-103 -61 -124 -79 -240 -135 -325 -155 -103 -24 -258 -14 -474 31 -100 20
-219 38 -280 41 -260 14 -515 -78 -703 -255 -38 -36 -130 -134 -203 -217 -203
-230 -371 -383 -536 -487 -119 -75 -263 -119 -263 -81 0 6 36 38 80 72 158
118 275 260 383 465 119 224 284 456 440 619 191 198 277 244 527 282 364 56
563 131 715 272 70 66 150 180 179 259 36 95 43 98 -140 -63 -66 -58 -121 -97
-184 -128 -135 -67 -198 -77 -455 -71 -342 7 -482 -14 -655 -98 -195 -94 -327
-227 -480 -485 -223 -376 -483 -666 -657 -732 -82 -31 -82 -10 1 78 82 88 188
241 227 329 14 33 51 131 81 218 90 262 191 476 315 663 81 123 220 270 287
304 24 12 117 47 205 76 368 125 581 269 699 474 43 75 100 270 79 270 -4 0
-35 -35 -67 -77 -140 -179 -212 -246 -330 -303 -96 -47 -159 -62 -389 -95 -96
-14 -214 -37 -263 -51 -262 -74 -475 -248 -597 -484 -24 -47 -72 -155 -105
-242 -120 -304 -270 -578 -395 -714 -58 -64 -140 -124 -170 -124 -23 0 -18 14
32 88 115 168 171 328 212 600 55 368 172 722 305 922 65 98 134 155 281 235
454 245 645 473 661 790 4 70 2 97 -5 90 -6 -5 -40 -65 -76 -133 -146 -273
-239 -347 -585 -463 -220 -73 -292 -104 -396 -174 -144 -95 -267 -238 -334
-387 -46 -101 -67 -176 -110 -386 -82 -401 -187 -684 -308 -834 -48 -60 -89
-91 -109 -84 -12 5 -10 15 14 63 32 63 72 181 98 283 12 49 18 147 24 400 4
184 13 373 19 420 40 298 118 539 212 653 17 21 95 89 173 151 361 290 505
515 506 792 0 94 -9 174 -21 174 -4 0 -26 -57 -49 -127 -55 -167 -110 -272
-183 -350 -80 -85 -128 -118 -308 -214 -85 -45 -183 -101 -219 -124 -250 -160
-403 -391 -450 -675 -5 -36 -13 -135 -15 -220 -19 -538 -89 -861 -219 -1015
-49 -57 -60 -40 -36 52 50 191 52 424 6 637 -44 204 -60 370 -60 606 1 177 5
233 22 315 39 189 53 215 260 452 198 228 289 395 323 597 15 88 6 212 -22
302 -35 115 -37 112 -64 -76 -29 -202 -82 -327 -184 -441 -33 -36 -128 -119
-213 -184 -84 -66 -186 -153 -226 -194 -159 -162 -245 -342 -273 -576 -12
-100 -8 -183 21 -379 60 -406 56 -735 -10 -923 -18 -51 -67 -129 -76 -121 -2
2 -5 94 -7 204 -3 177 -7 210 -30 296 -15 53 -38 123 -52 155 -48 107 -114
301 -150 435 -57 219 -77 354 -78 523 0 190 10 223 132 429 51 85 111 197 136
248 115 244 138 479 66 676 -34 94 -76 170 -84 150z"/>
</g>
</svg>
